<svg version="1.1" xmlns="http://www.w3.org/2000/svg" viewBox="0 0 200 200">
  <path d="M4.7,68c-0.6-0.3-0.9-1-0.6-1.6c0.1-0.3,0.3-0.5,0.6-0.6l2.9-1.4l89.8-42.7c1.4-0.8,3.2-0.7,4.6,0.1l92.4,43.9h0.2c0.6,0.3,0.9,1.1,0.5,1.8c-0.1,0.2-0.3,0.4-0.5,0.5l-18.2,8.6l-74.7,35.6c-1.2,0.8-2.7,0.8-3.9,0.1L4.7,68L4.7,68z" />
  <path d="M15.3,95l4.1,1.6l77.8,37c1.5,0.8,3.3,0.8,4.8,0l77.9-37l1.1-0.5c3.5-1.6,6.6-0.7,8.1,2.3s0,6.1-3.4,7.7l-34.4,16.3l-48.2,22.9c-2.1,1.2-4.7,1.2-6.8,0l-82-38.8c-2.3-1.2-4.4-2.4-4.5-5.4C9.6,97.9,12.1,95.2,15.3,95C15.3,95,15.3,95,15.3,95z" />
  <path d="M99.6,180.4l-3-1.1l-82.4-39.1c-2.5-1.2-4.4-2.7-4.4-5.7c-0.1-2.1,1.1-4,3-4.8c2.1-1.1,4.1-0.5,6.1,0.5l40.6,19.2l38.1,18.2c1.3,0.7,2.9,0.7,4.2,0l78-37.1c1.4-0.7,2.9-1.2,4.5-1.3c2.4-0.1,4.6,1.5,5.1,3.9c0.5,2.4,0,4.5-2.1,5.9c-0.7,0.5-1.4,0.9-2.2,1.2l-81.9,38.9L99.6,180.4z" />
</svg>
