<svg version="1.1" xmlns="http://www.w3.org/2000/svg" viewBox="0 0 200 200">
<g>
	<path d="M70.4,134.7c-25-22.2-18.9-62.3,11.8-75.4c16.3-6.9,32-4.9,46.3,5.6c4.9,3.7,7.9,3.3,10.1-2.5c3.8-9.9,8.3-19.7,9.8-30.4
		c-1.1-6.8-6.4-6-11.1-6c-31.9-0.1-63.8,0-95.8,0c-2.9,0-5.6,0-8.3,0.8c-6.6,1.3-8.3,6.3-8.3,11.9c-0.1,42.8,0,85.6-0.1,128.4
		c0,7.5,3.2,8,8.9,5c12.6-6.3,24.7-13.6,35.8-22.2C79.3,142.8,79.3,142.3,70.4,134.7z"/>
	<path d="M96.4,70.8c-14.8,1.8-26.1,14.5-26.1,29.7c-0.1,15.5,10.1,27.3,25.6,29.5c3.3,1.1,6.8,1,10.1-0.1
		c12.7-2.1,20.7-9.5,23.8-21.9c2.1-5.1,2-10.1-0.1-15.2C125.6,77.6,112.4,68.9,96.4,70.8z"/>
	<path d="M175,44.1c0-2.1,0.8-4.5-1.3-6.4c-3.1,0.8-3.1,3.5-3.5,5.8l0,0l0,0c-6.2,12.6-11.9,25.4-18.6,37.8
		c-3.5,6.4-5.4,12.5-5.4,19.9c0.1,21.6-16.1,41.2-37.3,43.5c-12.4,1.3-22.5,5.5-32.5,12.1c-6.6,4.4-13.8,7.5-20.7,11.3
		c-2,1.1-5.1,1.1-5.7,4.5c0.6,0.5,1.3,1.2,1.9,1.2c37.4,0.1,74.9,0.1,112.3,0c4.4,0,8.3-1.7,9.4-6.8c1.8-2.3,1.3-4.9,1.3-7.3
		C175.1,121.3,175.1,82.7,175,44.1z"/>
</g>
</svg>
