<svg version="1.1" xmlns="http://www.w3.org/2000/svg" viewBox="0 0 200 200">
<g>
	<path d="M73.7,113.1c19.7,0,39.5,0,59.2,0c6.3,0,12.3-1.5,18.1-4c1.6-0.7,1.8-1.4,0.9-3c-5.2-9.4-4.2-21.8,2-29.7
		c1.1-1.4,1.8-1.4,3.2-0.3c6.1,4.9,10.8,10.7,12.3,18.6c0.4,1.9,1.5,1.1,2.4,0.9c7.4-1.8,14.4-0.9,21,2.9c1.4,0.8,1.7,1.4,0.9,3
		c-4.6,9.4-12.7,13.5-22.5,14c-4.4,0.2-6.4,1.5-8.3,5.6c-13.9,29.7-37.6,46.8-69.6,52.9c-13.4,2.6-26.9,3.3-40.5,0.6
		c-15.4-3.2-28.2-10.7-36.9-24.1c-6.8-10.7-9-22.4-7.7-34.9c0.2-2.1,1-2.6,3-2.6C32,113.1,52.9,113.1,73.7,113.1z"/>
	<path d="M84.2,73.8c0,2.5,0,5,0,7.4c0,1.2-0.2,1.9-1.7,1.9c-5.3-0.1-10.6-0.1-15.9,0c-1.4,0-1.8-0.6-1.7-1.8c0-5.2,0-10.4,0-15.6
		c0-1.4,0.6-1.7,1.8-1.7c5.2,0,10.4,0.1,15.6,0c1.5,0,1.9,0.6,1.8,2C84.1,68.5,84.2,71.1,84.2,73.8z"/>
	<path d="M98,83c-2.6,0-5.1,0-7.7,0c-1.3,0-2-0.3-2-1.8c0.1-5.2,0.1-10.4,0-15.6c0-1.4,0.5-1.7,1.8-1.7c5.2,0,10.4,0.1,15.6,0
		c1.5,0,1.9,0.6,1.9,2c-0.1,5.1-0.1,10.2,0,15.4c0,1.5-0.6,1.9-2,1.9C103.1,83,100.6,83,98,83z"/>
	<path d="M107.6,49.2c0,2.6,0,5.1,0,7.7c0,1.3-0.3,1.8-1.7,1.8c-5.3-0.1-10.6-0.1-15.9,0c-1.3,0-1.8-0.4-1.7-1.8
		c0.1-5.2,0.1-10.4,0-15.6c0-1.4,0.6-1.7,1.8-1.7c5.2,0,10.4,0.1,15.6,0c1.4,0,2,0.4,1.9,1.9C107.6,44.1,107.6,46.6,107.6,49.2z"/>
	<path d="M51.2,63.9c2.6,0,5.1,0,7.7,0c1.2,0,1.9,0.2,1.9,1.7c-0.1,5.3-0.1,10.6,0,15.9c0,1.2-0.4,1.7-1.6,1.6c-5.3,0-10.6,0-15.9,0
		c-1.2,0-1.6-0.5-1.6-1.7c0-5.3,0-10.6,0-15.9c0-1.2,0.4-1.7,1.6-1.6C45.9,64,48.5,63.9,51.2,63.9z"/>
	<path d="M74.4,107.3c-2.6,0-5.1-0.1-7.7,0c-1.3,0-1.8-0.3-1.8-1.7c0.1-5.2,0.1-10.4,0-15.6c0-1.4,0.5-1.7,1.8-1.7
		c5.3,0.1,10.6,0.1,15.9,0c1.2,0,1.6,0.3,1.6,1.6c-0.1,5.3-0.1,10.6,0,15.9c0,1.2-0.4,1.6-1.6,1.6C79.9,107.3,77.1,107.3,74.4,107.3
		z"/>
	<path d="M97.9,107.3c-2.6,0-5.1,0-7.7,0c-1.2,0-1.9-0.2-1.8-1.6c0.1-5.3,0.1-10.6,0-15.9c0-1.1,0.3-1.5,1.5-1.5
		c5.5,0,10.9,0,16.4,0c1.1,0,1.5,0.4,1.5,1.5c0,5.3-0.1,10.6,0,15.9c0,1.5-0.7,1.7-1.9,1.6C103.1,107.3,100.5,107.3,97.9,107.3z"/>
	<path d="M28.1,107.3c-2.6,0-5.1,0-7.7,0c-1.2,0-1.8-0.2-1.8-1.7c0.1-5.3,0.1-10.6,0-15.9c0-1.1,0.3-1.5,1.5-1.5
		c5.4,0,10.8,0.1,16.1,0c1.3,0,1.6,0.5,1.6,1.7c0,5.2-0.1,10.4,0,15.6c0,1.3-0.4,1.8-1.7,1.8C33.4,107.3,30.7,107.3,28.1,107.3z"/>
	<path d="M51.2,88.4c2.6,0,5.3,0,7.9,0c1.2,0,1.6,0.3,1.6,1.6c-0.1,5.3-0.1,10.6,0,15.9c0,1.2-0.4,1.6-1.6,1.6c-5.3,0-10.6,0-15.9,0
		c-1.2,0-1.6-0.3-1.6-1.6c0.1-5.3,0.1-10.6,0-15.9c0-1.2,0.4-1.6,1.6-1.6C45.9,88.4,48.5,88.4,51.2,88.4z"/>
	<path d="M121.6,88.4c2.5,0,5,0.1,7.4,0c1.4,0,2,0.3,1.9,1.8c-0.1,5.2-0.1,10.4,0,15.6c0,1.2-0.4,1.6-1.6,1.6
		c-5.3-0.1-10.6,0-15.9,0c-1.2,0-1.7-0.2-1.7-1.5c0.1-5.3,0.1-10.6,0-15.9c0-1.5,0.7-1.6,1.8-1.6C116.3,88.4,119,88.4,121.6,88.4z"
		/>
</g>
</svg>
