<svg xmlns="http://www.w3.org/2000/svg" viewBox="0 0 200 200">
<path d="M99.9,14.4c-47.1,0-85.5,38.4-85.5,85.5s38.4,85.6,85.6,85.6c6.9,0,13.5-0.8,19.8-2.3c-1.7-4-3.6-7.7-5.8-11.5
	c-0.1,0-0.2,0-0.2,0c-0.1-0.8-0.1-1.7-1-2.2c-3.6-8.3-7-16.7-11.5-24.5c-2.6-4.7-5.7-8.9-11.2-10.7c-2.6-0.8-4.5-3-6.3-5.2
	c-6.4-7.6-13.7-14-22.5-18.6c-1.7-1-3.2-2.2-4.8-3.4c-2.6-1.9-3.2-4.2-0.8-6.9c3-1.1,6-1,9-0.6c4.2,1.7,7.8,4.6,11.2,7.6
	c3.6,3.1,5.7,1.8,7.8-1.3c1.3-1.8,1.3-3.6,1.2-5.7c-0.2-7-0.7-13.8-2.2-20.7c-0.1-2.2-0.5-4.3-1-6.5c-1-5.3-4.2-10.2-2.6-15.9
	c0-0.7,1.6-2.3,1.8-2.5c0.4-0.2,0.7-0.5,1.1-0.6c0.7-0.2,4,1.7,4.2,2c0.6,0.8,2.5,8.7,2.8,9.6c0.2,0.8,1.8,6.7,2.2,7.3
	c0.5,1,1,1.9,1.3,2.9c1.1,2.9,1.3,6,2.2,9c0.1,0.6,0.8,1.1,1.4,0.7s0.5-1.1,0.5-1.7c0-0.6-0.1-1.2-0.1-1.7c0.1-0.5,0-1-0.1-1.4
	c-0.2-4.1-0.6-8.1-0.8-12.1c0-0.4-0.1-0.5-0.4-0.6c0-0.1,0-0.4,0-0.6c-0.1-0.8-0.2-1.7-0.2-2.5c0-2.9,0-5.8,0-8.7
	c0-0.7,0.1-1.3,0.1-2c0.1-0.5,0.2-1,0.1-1.4c0-3,1.7-4.8,4.5-4.8c2.5,0,3.4,2.2,3.7,4.5c0.1,1.2,0.4,2.3,0.5,3.4
	c0.1,1.2,0.5,6.4,0.7,7.7c0.6,3.1,0.8,16.5,1.4,19.8c0.1,0.6,0.2,1.9,1,2c1,0.1,1.4-1.1,1.3-1.9c-0.2-1.2-0.6-2.4-0.7-3.7
	c-0.1-2.5-0.8-9.3-0.8-10.1c-0.6-4.6-1.1-9-0.8-13.7c0.1-2,0.8-3.7,3-4c3-0.4,4.1,1.9,4.7,4.6c0.7,3.4,1.4,6.9,2.2,10.2
	c0.4,1.4,0.7,3,0.8,4.5c0.1,1.6,1,7,1,8.1c0.1,3.5,0,7.1,0,10.6c0,0.5,2.2-0.7,2.4-0.8c0.6-0.6,1-1.3,1.2-2.2
	c0.4-1.7,0.4-5.8,0.6-6.1s1.8-9.9,1.9-10.6c0.4-2.8,2.8-5.7,5.9-4.8l-0.1,0.2l0.1-0.2c2.3,5.4,0.8,10.5-0.8,15.6
	c-1.7,5.4-2.9,10.8-1.1,16.4l-0.1-0.1c1.2,7.6,1.3,15.3-0.1,22.9c-1.4,7.7,1,14.3,4,20.9c2,5.1,5.1,9.5,8.1,14
	c1.2,1.8,2.2,3.1,2.9,4.2l-0.1,0.1c0.4,0.2,0.6,0.6,1,0.8c0.4,0.4,0.6,0.7,1,1c2.3,2.4,4.2,5.1,6.5,7.5
	c21.2-15.6,34.9-40.7,34.9-68.9C185.6,52.8,147.2,14.4,99.9,14.4z"/>
</svg>
