<svg version="1.1" xmlns="http://www.w3.org/2000/svg" viewBox="0 0 100 100">
<g>
	<path d="M41.7,3c20.8-1.4,37.8,19.4,31.2,39.3c-7.4,29.7-36.6,44-61.8,56.6c-0.5,0.3-1.1,0.3-1.7,0.1c-0.6-0.1-0.9-0.7-0.7-1.2
		C8.8,97.4,9,97,9.2,96.9c10.6-7.6,21.9-14.2,30.7-24C56.2,57.8,70.9,6,36.2,6.3c-4.8,0.5-9.6,1.4-13.2,4.9
		c-2.6,2.4-8.3,9.7-1.3,10c6.6-2,14.1-0.4,15.9,6.4c3.3,16.5-23.9,17.8-26.2,2.4C9,12.8,26.8,4,41.7,3C41.7,3.1,41.7,2.8,41.7,3z"
		/>
	<path d="M85.8,38.9c8.8,0.1,8.8,12.8,0.1,13.1C77.5,52.3,77.1,38.8,85.8,38.9z"/>
	<path d="M79.4,18.7c-0.2-8.6,13.2-8.4,13.2,0C92.3,27.2,79.4,27.6,79.4,18.7z"/>
</g>
</svg>
