<svg version="1.1" xmlns="http://www.w3.org/2000/svg" viewBox="0 0 120 120">
	<g>
		<path d="M27.5,80.5c-2.1,0-4.3,0-6.4,0c-0.7,0-1.3-0.2-1.7-0.9c-0.5-0.9,0-2.1,1-2.3c0.3-0.1,0.6-0.1,1-0.1c4.2,0,8.3,0,12.5,0
			c0.5,0,0.8-0.2,1.1-0.6c2.1-3.6,4.2-7.2,6.2-10.8c0.4-0.7,0.9-1,1.7-1c4.2,0,8.5,0,12.7,0c0.5,0,0.8-0.1,1.1-0.6
			c1.9-3.3,3.8-6.6,5.7-9.9c0.2-0.3,0.2-0.6,0-0.9c-1.9-3.3-3.8-6.6-5.7-10c-0.2-0.4-0.5-0.6-1-0.6c-3.8,0-7.6,0-11.4,0
			c-0.4,0-0.7,0.1-0.9,0.5c-2.1,3.7-4.2,7.3-6.3,10.9c-0.4,0.7-0.9,1.1-1.8,1.1c-4.7,0-9.5,0-14.2,0c-0.8,0-1.3-0.3-1.7-1
			c-2.3-4.1-4.7-8.1-7-12.2c-0.4-0.7-0.4-1.4,0-2.1c2.4-4.1,4.7-8.2,7.1-12.3c0.4-0.7,1-0.9,1.8-0.9c4.2,0,8.3,0,12.5,0
			c0.6,0,0.9-0.2,1.1-0.7c2.1-3.6,4.2-7.2,6.3-10.8c0.2-0.4,0.5-0.7,0.9-0.9c0.6-0.3,1.4-0.2,1.8,0.3c0.5,0.5,0.6,1.3,0.2,2
			c-0.4,0.8-0.9,1.6-1.3,2.3c-1.7,2.9-3.4,5.9-5.1,8.8c-0.2,0.4-0.3,0.7,0,1.2c1.9,3.3,3.8,6.6,5.7,9.9c0.2,0.4,0.4,0.5,0.8,0.5
			c3.9,0,7.7,0,11.6,0c0.4,0,0.6-0.1,0.8-0.5c2.1-3.6,4.1-7.2,6.2-10.8c0.5-0.9,1.2-1.4,2.3-1.3c4.2,0.1,8.3,0,12.5,0
			c0.4,0,0.6-0.1,0.9-0.5c2.1-3.7,4.3-7.4,6.4-11.1c0.5-0.9,1.2-1.2,2-1c1.1,0.4,1.5,1.4,0.9,2.5c-1,1.8-2.1,3.6-3.2,5.5
			c-1.1,1.9-2.2,3.8-3.3,5.7c-0.2,0.3-0.2,0.6,0,0.9c1.9,3.3,3.9,6.7,5.8,10.1c0.2,0.3,0.4,0.5,0.8,0.5c3.9,0,7.7,0,11.6,0
			c0.4,0,0.6-0.1,0.8-0.5c2.1-3.6,4.1-7.2,6.2-10.7c0.1-0.2,0.2-0.4,0.4-0.7c0.5-0.7,1.4-0.9,2.2-0.5c0.7,0.4,1,1.4,0.6,2.1
			c-0.9,1.6-1.8,3.1-2.7,4.7c-1.5,2.6-3,5.2-4.5,7.8c-0.4,0.7-1,1-1.8,1c-4.2,0-8.5,0-12.7,0c-0.5,0-0.7,0.1-1,0.5
			c-1.9,3.3-3.8,6.6-5.7,10c-0.2,0.4-0.2,0.6,0,1c2.1,3.7,4.2,7.3,6.3,11c0.1,0.1,0.2,0.3,0.2,0.4c0.4,0.8,0.2,1.7-0.4,2
			c-1,0.4-1.9,0.6-2.5-0.6c-2.2-3.8-4.3-7.5-6.5-11.3c-0.1-0.2-0.4-0.3-0.6-0.3c-3.9,0-7.8,0-11.7,0c-0.2,0-0.6,0.2-0.7,0.4
			c-2,3.4-3.9,6.8-5.9,10.2c-0.1,0.2-0.1,0.5,0,0.7c1.9,3.4,3.9,6.8,5.8,10.2c0.2,0.4,0.5,0.4,0.9,0.4c4.2,0,8.4,0,12.6,0
			c1,0,1.6,0.3,2.1,1.2c2,3.5,4.1,7,6.1,10.6c0.3,0.6,0.7,0.7,1.3,0.7c4.1,0,8.3,0,12.4,0c1.3,0,2.1,0.6,2.1,1.6
			c0,1.1-0.8,1.7-2.1,1.7c-4.2,0-8.3,0-12.5,0c-0.6,0-0.9,0.2-1.2,0.7c-2,3.5-4.1,7.1-6.1,10.6c-0.5,0.9-1.1,1.3-2.2,1.2
			c-4.6,0-9.2,0-13.7,0c-0.9,0-1.5-0.3-2-1.1c-2.1-3.6-4.2-7.2-6.2-10.8c-0.2-0.4-0.5-0.6-1-0.6c-3.8,0-7.6,0-11.4,0
			c-0.4,0-0.7,0.1-0.9,0.5c-2.1,3.7-4.2,7.3-6.3,10.9c-0.6,1.1-1.5,1.4-2.4,0.9c-0.9-0.5-1-1.5-0.4-2.6c2.1-3.6,4.2-7.3,6.3-10.9
			c0.2-0.4,0.2-0.7,0-1c-1.9-3.3-3.8-6.6-5.7-9.9c-0.2-0.4-0.5-0.6-1-0.5C31.8,80.5,29.7,80.5,27.5,80.5z M50.1,90
			c1.9,0,3.9,0,5.8,0c0.4,0,0.6-0.1,0.8-0.4c1.9-3.4,3.9-6.8,5.8-10.2c0.1-0.2,0.1-0.6,0-0.8c-1.9-3.4-3.9-6.8-5.8-10.1
			c-0.2-0.3-0.4-0.4-0.7-0.4c-3.9,0-7.8,0-11.7,0c-0.2,0-0.6,0.2-0.7,0.4c-2,3.3-3.9,6.7-5.8,10c-0.2,0.4-0.2,0.7,0,1
			c1.9,3.3,3.8,6.5,5.7,9.8c0.3,0.5,0.6,0.6,1.1,0.6C46.4,89.9,48.2,90,50.1,90z M71.9,102.5c1.9,0,3.8,0,5.7,0
			c0.4,0,0.7-0.1,0.9-0.5c1.9-3.3,3.8-6.6,5.7-9.9c0.2-0.4,0.3-0.7,0-1.2c-1.9-3.3-3.8-6.6-5.7-9.9c-0.2-0.4-0.5-0.5-0.9-0.5
			c-3.8,0-7.6,0-11.4,0c-0.4,0-0.7,0.1-0.9,0.5c-1.9,3.4-3.9,6.7-5.8,10.1c-0.1,0.2-0.1,0.6,0,0.8c1.9,3.4,3.9,6.7,5.8,10.1
			c0.2,0.3,0.4,0.5,0.8,0.5C68,102.5,69.9,102.5,71.9,102.5z M28.3,30.2c-1.9,0-3.9,0-5.8,0c-0.4,0-0.6,0.1-0.8,0.4
			c-1.9,3.4-3.9,6.8-5.8,10.2c-0.1,0.2-0.1,0.5,0,0.6c1.9,3.4,3.9,6.8,5.9,10.2c0.2,0.3,0.4,0.5,0.8,0.5c3.9,0,7.7,0,11.6,0
			c0.3,0,0.6-0.2,0.7-0.4c2-3.4,3.9-6.8,5.9-10.2c0.1-0.2,0.1-0.5,0-0.7c-1.9-3.4-3.9-6.8-5.9-10.2c-0.1-0.2-0.5-0.4-0.7-0.4
			C32.2,30.2,30.3,30.2,28.3,30.2z M71.9,30.2c-1.9,0-3.9,0-5.8,0c-0.4,0-0.6,0.1-0.8,0.4c-1.9,3.4-3.9,6.8-5.8,10.2
			c-0.1,0.2-0.1,0.5,0,0.7c1.9,3.4,3.9,6.8,5.8,10.2c0.2,0.3,0.4,0.5,0.8,0.5c3.9,0,7.7,0,11.6,0c0.2,0,0.6-0.2,0.7-0.4
			c2-3.3,3.9-6.7,5.8-10c0.2-0.4,0.2-0.6,0-1c-1.9-3.3-3.9-6.7-5.8-10c-0.2-0.3-0.4-0.5-0.8-0.5C75.8,30.2,73.9,30.2,71.9,30.2z"/>
	</g>
</svg>
