<svg version="1.1" xmlns="http://www.w3.org/2000/svg" viewBox="0 0 200 200">
<path d="M183.1,177.6c-31.2-53.9-62.3-107.8-93.4-161.7c-2.5-4.1-5.1-4.1-7.5,0C59,53.3,37.4,91.7,16.3,130.2
	c-2.8,5.4-0.8,7.7,4.9,7.6c12.2-0.2,24.3-0.6,36.5-0.9c9.2-10.4,14.6-23.2,21.6-35c5-8.3,8.4-9.3,13.3-0.2
	c5.9,10.7,12.3,21.1,18.2,31.7c5.5,9.9,4.5,11.4-6.7,12.1c-13.2,0.8-26.5-2.6-39.6,1.7c-0.8,0.9-1.5,1.7-2.3,2.6
	c-5.5,9.1-11.1,18.1-16.5,27.2c-3.9,6.4-2.5,10.2,5.3,10.2c42.1,0.1,84.2,0,126.3,0.1C184.3,187.2,187.3,184.8,183.1,177.6z"/>
</svg>
