<svg version="1.1" xmlns="http://www.w3.org/2000/svg" viewBox="0 0 200 200">
<g>
	<g>
		<path d="M12,44.4c56.9,0,113.8,0,170.7,0c0,12.5,0,25,0,37.4c0,0.4,0.1,0.9,0.3,1.2c5.2,8.9,8.5,18.4,10.8,28.4
			c0.5,2.1,1,4.3,1.5,6.5c0.5-0.3,0.9-0.4,1.2-0.7c6.9-4.7,13.7-9.5,20.6-14.2c5-3.4,10-6.7,15-10c0,0.2,0,0.4,0,0.6
			c-0.8,1.9-1.6,3.8-2.4,5.7c-0.3,0.6-0.7,1.2-1.2,1.6c-1.6,1.2-3.3,2.3-4.9,3.6c-0.5,0.3-0.9,0.8-1.1,1.3c-0.9,2.1-1.8,4.2-2.7,6.2
			c-2.2,5.1-4.4,10.2-6.7,15.3c-1.5-0.6-2.9-1.2-4.4-1.8c2.3-4.9,4.5-9.7,6.8-14.7c-0.5,0.1-0.6,0.1-0.7,0.2c-5.9,4-11.8,8-17.6,12
			c-0.4,0.3-0.7,1.2-0.6,1.7c0.6,3.4,1.3,6.8,2,10.1c0.5,2.2,1.1,4.3,1.7,6.7c2.4-4.8,4.7-9.3,6.9-13.7c0.4-0.9,0.8-1.1,1.7-0.6
			c1,0.5,2.2,0.9,3.3,1.4c-0.2,0.6-0.4,1-0.6,1.5c-2.7,5.4-5.4,10.9-8.1,16.3c-0.4,0.8-0.4,1.3,0.1,2c1.1,1.4,2.2,2.9,3.2,4.3
			c-1.1,1.5-2.2,3.1-3.4,4.7c-8.8-7.5-12.8-17.6-16-28.3c-1.4,0.8-2.5,1.5-3.7,2.2c-0.8,0.4-1.1,1-1.1,1.9c0,6.5,0,13,0,19.6
			c0,0.5,0,1.1,0,1.7c-57,0-113.8,0-170.7,0c0-0.6,0-1.2,0-1.7c0-4.7,0-9.5,0-14.2c0-0.4-0.1-1.1-0.4-1.3c-1.7-1.3-3.4-2.6-5.2-3.9
			c-2.1,7.5-4.1,14.8-6.1,22.3c-1.6-1-2.9-2-4.3-2.9c0.5-1.9,1.1-3.8,1.6-5.7c0.3-0.9,0.3-1.6-0.4-2.4c-1.3-1.6-2.4-3.4-3.6-5.1
			c-1.9-2.7-3.8-5.5-5.7-8.2c1.2-1,2.3-1.9,3.5-2.9c2.7,4,5.3,7.8,8.1,11.8c0.8-3.3,1.7-6.3,2.3-9.3c0.1-0.5-0.2-1.4-0.6-1.7
			c-2-1.7-4-3.3-6.1-4.9c-4.3-3.2-8.6-6.4-12.9-9.5c-0.1-0.1-0.4-0.1-0.7-0.1c3,4.1,5.9,8,8.8,12c-1.2,1-2.4,2-3.5,2.9
			c-5-6.4-9.8-12.6-14.7-18.9c-1.7-2.2-3.1-4.8-6.1-5.6c-1-0.3-1.9-0.8-2.9-1.1c-1.2-0.3-1.4-1.1-1.1-2c0.7-2,1.5-3.9,2.4-5.8
			c0.5-1.2,1.4-1.2,2.5-1c12.6,3.1,23.2,9.7,32.9,17.9c1.7,1.5,3.4,2.9,5.1,4.4c2-7.5,3.9-14.9,6-22.2c0.9-3,1.1-5.9,1.1-8.9
			C12,72.5,12,58.5,12,44.4z M58.6,94.2c-2.4-11.8-4.7-23.6-7.1-35.7c-3.4,1-6.6,1.9-9.9,2.9c0.6,14.2,1.2,28.2,1.9,42.3
			c-1.3,0.1-2.6,0.3-4.3,0.4c-0.8-13.3-1.7-26.5-2.5-39.7c-0.1-0.1-0.2-0.2-0.4-0.2c-2.5,2.3-5.2,4.5-7.5,7.1
			c-3.7,4.1-6.2,8.9-8.4,13.9c-0.3,0.6-0.4,1.4-0.4,2.1c0.5,4.3,1.1,8.5,1.6,12.8c0.6,4.3,1.2,8.5,1.8,12.8c-1.1,0.3-2.1,0.7-3.2,1
			c-0.7,0.2-1.1,0-1.2-0.8c-0.6-3.8-1.2-7.6-1.8-11.4c-0.3-1.7-0.6-3.3-0.8-5c-0.1,0-0.3,0-0.4,0c-0.6,2.1-1.6,4.2-1.6,6.3
			c-0.2,7.7-0.1,15.3-0.1,23c0,0.4,0,0.9,0.2,1.1c2.7,2.7,5.4,5.4,8.2,8.1c0.1-0.1,0.2-0.1,0.3-0.2c-1.1-6.2-2.2-12.3-3.3-18.6
			c1.4-0.4,2.7-0.8,4.1-1.2c0.1,0.5,0.3,1,0.4,1.4c0.4,2.7,0.8,5.4,1.3,8.2c0.7,4.4,1.5,8.8,2.4,13.2c0.1,0.8,0.7,1.7,1.3,2.1
			c2,1.1,4.1,2.1,6.2,3c2.5,1.1,5.2,1.4,8,1.1c-1.3-12.6-2.6-25-3.9-37.6c1.5-0.2,2.9-0.3,4.3-0.5c1.1,12.5,2.2,25,3.4,37.4
			c3.8-0.2,6.5-2.2,9.1-4.4c3.4-2.8,6.1-6.3,8.7-9.9c0.6-0.8,0.9-1.5,0.7-2.4c-1.3-6.2-2.7-12.3-4-18.5c-0.8-3.6-1.5-7.2-2.2-10.7
			c-0.1-0.5,0-1.4,0.3-1.5c1.2-0.4,2.5-0.7,3.7-1c1.9,9.5,3.7,18.7,5.6,28.3c1-1.4,1.7-2.5,2.4-3.6c2.7-4.2,5.3-8.4,8.1-12.6
			c3.1-4.6,3.1-4.5,1.5-9.8c-1.1-3.7-2.2-7.4-3.4-11.2c1.5-0.7,2.9-1.3,4.3-2c1.4,4.6,2.6,8.9,3.9,13.2c3.3-4.3,6.6-8.4,9.8-12.6
			c0.3-0.4,0.2-1.5-0.1-1.9c-1.8-2.3-3.6-4.6-5.6-6.7c-2.3-2.4-4.7-4.8-7.2-7c-1.8-1.6-3.9-2.9-5.9-4.3c-0.1,0.1-0.2,0.2-0.3,0.3
			c1.4,5.4,2.9,10.9,4.3,16.4c-1.4,0.7-2.8,1.3-4.2,2c-0.1-0.4-0.2-0.6-0.3-0.8c-1.7-6-3.5-12.1-5-18.2c-0.6-2.6-2.1-3.7-4.4-4.3
			c-0.6-0.2-1.2-0.4-1.9-0.5c-2.8-0.5-5.6-1.1-8.6-1.6c2.2,11.9,4.3,23.3,6.4,34.9C61.7,93.5,60.2,93.8,58.6,94.2z M180.1,133.6
			c-0.6,0.3-1.1,0.6-1.6,0.8c-5.5,2.6-11,5.4-16.6,7.7c-5.7,2.4-11.7,3.8-18,3.7c-3.6,0-7-0.7-10.4-1.9c-2.2-0.8-4.2-1.7-6-3.1
			c-2.1-1.6-3.8-3.7-5.5-5.7c-1.1-1.4-1.9-3.1-2.8-4.7c-1.2-2-2.4-4-3.5-6.1c-0.6-1.1-0.8-2.3-1.3-3.4c-1.8-4-3.6-7.9-5.4-11.8
			c-2.6-5.6-5.1-11.2-7.7-16.7c-0.5-1.1-1.2-2.1-2.1-3.6c-5.1,7.1-10.1,13.8-14.9,20.6c-2.7,3.8-5.2,7.8-7.8,11.7
			c-2.1,3.1-4,6.3-6.1,9.4c-2.1,3-4.3,5.9-6.7,8.6c-2.1,2.4-4.5,4.6-6.9,6.5c-2.8,2.2-6.3,3.3-9.8,3.9c-4.4,0.8-8.9,0.7-13.1-0.4
			c-6.1-1.5-11.6-4.4-16.7-7.9c-0.8-0.6-1.7-1.1-2.7-1.7c0,4.4,0,8.5,0,12.6c55.2,0,110.4,0,165.6,0
			C180.1,146,180.1,139.9,180.1,133.6z M141.8,62.4c-2.3,0.3-4.4,0.6-6.5,0.9c-0.5,0.1-1.1,0.4-1.4,0.8c-1.4,2.7-2.6,5.4-3.9,8.1
			c-1.2,2.5-2.4,5-3.7,7.7c-1.5-0.8-2.9-1.6-4.3-2.4c1.7-3.7,3.3-7.3,5-11.1c-7.6,3.8-13.9,8.8-19.5,14.3c2.5,4.3,5,8.5,7.4,12.7
			c2.1-4.7,4.1-9.2,6.1-13.9c1.5,0.8,2.8,1.6,4.1,2.4c-0.1,0.3-0.2,0.6-0.3,0.9c-2.4,5.3-4.7,10.6-7.1,15.8
			c-0.2,0.5-0.4,1.1-0.2,1.5c0.6,2,1.3,3.9,2,5.8c1.3,3.5,2.7,6.9,3.9,10.4c1,3.2,1.7,6.5,2.7,9.8c0.6,2.1,1.5,4.2,2.3,6.2
			c0.1,0,0.2-0.1,0.3-0.1c2.2-11.3,4.4-22.7,6.6-34.1c1.5,0.2,2.8,0.4,4.3,0.6c-0.8,3.9-1.5,7.7-2.3,11.4
			c-1.7,8.4-3.5,16.8-5.2,25.3c-0.1,0.5-0.1,1.3,0.2,1.5c1.3,0.9,2.7,2.1,4.2,2.5c4.4,1.3,8.9,1.3,13.4,0.6c0.5-4.4,1-8.7,1.6-13
			c0.9-7,1.8-13.9,2.7-20.9c0.3-2.7,0.3-2.7,3.1-2.4c0.5,0,1.1,0.1,1.6,0.1c-1.6,11.8-3.2,23.5-4.8,35.3c0.6-0.1,1-0.2,1.3-0.3
			c5.9-1.7,11.4-4.3,16.9-7.1c0.4-0.2,0.7-0.8,0.7-1.3c0.3-3.9,0.4-7.8,0.6-11.7c0.1-2.5,0.3-5,0.5-7.6c1.5,0.2,2.9,0.3,4.4,0.5
			c-0.3,5.8-0.7,11.4-1,17.1c1.8-0.5,2.8-1.3,2.6-3.2c-0.2-2.1,0.1-4.2,0-6.3c-0.3-6.5,0.7-13.2-1-19.7c-0.1,3.3-0.3,6.7-0.5,10.3
			c-1.5-0.2-2.9-0.3-4.4-0.5c0.1-1.4,0.2-2.6,0.2-3.9c0.1-5.2,0.3-10.3,0.4-15.5c0-1.3,0.5-2.6-0.3-4c-1.5-2.6-2.7-5.5-4.3-8.1
			c-1.8-3.1-3.9-6-7-8.3c-1.3,10.8-2.7,21.4-4,32.1c-1.6-0.2-3-0.3-4.5-0.5c0.2-1.5,0.3-2.9,0.5-4.3c0.3-3.1,0.7-6.2,1.1-9.3
			c0.3-3,0.6-6.1,1-9.1c0.4-3.9,1-7.7,1.4-11.6c0-0.5-0.5-1.2-0.9-1.4c-2.7-1.1-5.3-2.4-8.2-3c-1.6-0.3-2.9,0.1-3.1,1.2
			c-2,10.6-4,21.2-6,31.9c-0.1,0.4-0.7,0.9-1,0.9c-1.2-0.1-2.4-0.4-3.7-0.6C137.8,84.9,139.8,73.8,141.8,62.4z M180.1,46.9
			c-55.3,0-110.4,0-165.6,0c0,12.3,0,24.5,0,37.1c0.4-0.5,0.6-0.8,0.7-1.1c1.6-3.1,3.1-6.4,4.9-9.4c4.4-7.1,10.1-12.9,17.8-16.4
			c3.1-1.4,6.2-2.9,9.6-3.4c4.3-0.6,8.5-1.2,12.9-0.6c2.9,0.4,5.8,0.6,8.6,1.4c3.7,1.1,7.4,2.5,10.9,4c6.8,2.9,12.5,7.5,18.2,12.1
			c2.1,1.7,4,3.6,5.9,5.4c2.2-1.9,4.6-4.1,7.3-6.1c2.7-2,5.4-4,8.3-5.8c7.5-4.5,15.6-7.3,24.4-7.4c1,0,2.1,0.6,3.1,0.5
			c2.8-0.3,5.3,1,8,1.3c0.9,0.1,1.9,0.4,2.7,0.8c2.7,1.4,5.4,2.9,8,4.5c1.8,1.1,3.6,2.3,5,3.7c2.8,2.8,5.4,5.9,8,8.8
			c0.3,0.4,0.6,0.8,0.9,1.2c0.1-0.1,0.2-0.1,0.4-0.2C180.1,67.4,180.1,57.2,180.1,46.9z M186,124.1c-1-3.8-2-7.5-3.1-11.2
			c-0.1,0-0.1,0-0.2,0c0,4.3,0,8.6,0,13.1C183.9,125.3,184.9,124.7,186,124.1z M11.9,112.3c0,0-0.1,0-0.1,0
			c-0.8,3.1-1.6,6.2-2.4,9.3c-0.1,0.2,0.1,0.6,0.3,0.8c0.6,0.8,1.3,1.5,1.9,2.2c0.1-0.1,0.2-0.1,0.3-0.2
			C11.9,120.3,11.9,116.3,11.9,112.3z"/>
	</g>
</g>
</svg>
