<svg version="1.1" xmlns="http://www.w3.org/2000/svg" viewBox="0 0 200 200">
	<g>
		<path d="M100,138.1c-1.3,1.9-2.4,3.6-3.7,5.4c-7,9.9-14,19.9-21,29.8c-1.1,1.6-2.2,1.8-3.8,0.7c-7.2-4.6-14.4-9.3-21.6-13.9
			c-2.2-1.4-2.4-2.4-0.9-4.6c10.7-15,21.1-30.3,30.9-45.9c0.7-1.1,0.7-1.8,0-3c-7.3-12.6-14.5-25.3-21.7-38
			c-0.6-1.1-0.8-2.1-0.2-3.3c4.4-8.8,8.7-17.7,13-26.5c1.3-2.7,3.4-4.3,6-5.5c4.2-1.9,8.7-2.9,13.2-3.4c8.7-1,17.3-0.9,25.9,1.2
			c2.8,0.7,5.5,1.9,8.2,3c1.9,0.9,3.3,2.4,4.2,4.4c4.4,9,8.8,17.9,13.2,26.8c0.6,1.2,0.6,2.2-0.1,3.3c-7.3,12.7-14.6,25.4-21.9,38.1
			c-0.6,1-0.6,1.6,0,2.6c9.9,15.7,20.4,31.1,31.2,46.3c1.4,2,1.3,3-0.9,4.3c-7.1,4.6-14.2,9.1-21.2,13.7c-2.2,1.4-3,1.3-4.5-0.8
			c-7.9-11.3-15.8-22.5-23.7-33.8C100.5,138.8,100.3,138.6,100,138.1z M72.6,169.3c24-32.7,45.5-66.7,64.8-102.2
			c-1.5-1.7-3.3-2.6-5.3-3.4c-5.5-2.2-11.4-3.1-17.2-3.8c-0.9-0.1-1.3,0.1-1.8,0.9c-15.2,29.2-32.4,57.2-51.2,84.3
			c-2.7,3.9-5.5,7.9-8.3,11.9C59.9,161.1,66.2,165.2,72.6,169.3z M133.7,59.3c-0.2-0.4-0.2-0.6-0.3-0.8c-2.6-5.2-5.4-10.3-7.6-15.6
			c-1.6-3.8-4.2-5.7-7.9-6.7c-0.9-0.2-1.8-0.5-2.7-0.7c-7.7-1.8-15.5-1.9-23.3-1.2c-4.4,0.4-8.8,1.3-12.9,3.1
			c-1.7,0.8-3,1.9-3.9,3.7c-2,4.3-4.2,8.5-6.3,12.7c-0.7,1.5-1.5,3-2.3,4.8c11.2-3.8,22.4-3.9,33.7-3.9
			C111.5,54.7,122.7,55.4,133.7,59.3z M116.3,112.7c0,0-0.1,0.1-0.2,0.3c-4.3,6.8-8.6,13.5-12.9,20.3c-0.5,0.8-0.2,1.2,0.2,1.7
			c7.6,11,15.3,21.9,22.9,32.9c0.3,0.5,0.7,1,1.1,1.5c6.4-4.1,12.7-8.2,18.8-12.2C136.2,142.3,126.2,127.5,116.3,112.7z M83.5,103.8
			c0.2-0.4,0.2-0.5,0.3-0.6C88.2,95.8,92.6,88.4,97,81c0.2-0.3,0.1-1-0.1-1.4c-3.4-6.4-6.8-12.7-10.2-19c-0.4-0.7-0.8-1-1.5-0.8
			c-4.4,0.7-8.8,1.2-13.1,2.1c-3.2,0.7-6.2,1.9-8.7,4.2c-0.7,0.6-0.8,1.1-0.3,2.1c3.2,5.5,6.2,11.2,9.4,16.7
			C76,91.1,79.7,97.3,83.5,103.8z M108.7,59.4c-6,0-11.6,0-17.6,0c3,5.5,5.8,10.8,8.8,16.4C102.9,70.2,105.8,64.9,108.7,59.4z"/>
	</g>
</svg>
