<svg version="1.1" xmlns="http://www.w3.org/2000/svg" viewBox="0 0 200 200">
<g>
	<path d="M98.4,24.3c1.1-0.7,2.6-0.6,3.6,0.2c0.9,0.7,1.2,1.9,1.2,3c0,10.7,0,21.4,0,32.1c0.8,1.4,1.6,2.8,2.5,4.2
		c1.3,1.9,2.3,4,3.5,6c1.4,2.5,2.8,5.2,2.9,8.2c0.1,2.8-1.2,5.4-2.8,7.5c-1.4,1.8-3.1,3.3-4.6,4.9c-1.5,1.5-3,3-4.5,4.6
		c-2.5-2.3-5-4.7-7.3-7.2c-1.6-1.8-3.2-3.7-4-6c-0.7-2-0.7-4.2,0-6.3c1.1-3.5,2.9-6.8,4.7-10c1.1-2,2.3-4,3.4-5.9
		c0.1-7.9,0-15.8,0-23.7c0-2.9,0-5.7,0-8.6C96.7,26.2,97.3,24.9,98.4,24.3 M94.3,75.4c-0.8,2-0.9,4.4,0,6.4c1.1,2.4,3.4,4.1,5.7,5.3
		c1.9-1.5,3.9-2.9,5.2-4.9c1-1.5,1.1-3.5,0.7-5.3c-0.7-2.8-2.2-5.3-3.7-7.7c-0.2-0.2-0.1-0.5-0.1-0.7c-0.1,0.1-0.2,0.1-0.3,0.2
		c-0.5-1-1.2-1.9-1.8-2.9C98,68.9,95.6,71.9,94.3,75.4z"/>
	<path d="M122.1,44.6c1.5-0.7,3.5-0.3,4.5,1.1c0.5,0.7,0.5,1.6,0.5,2.4c0,3.3,0.1,6.7,0,10c0.1,2.4,0,4.8,0.1,7.2
		c0.1,2.1,0,4.2,0,6.3c0,9.3,0.1,18.7,0,28c0,1.6-0.2,3.1-0.2,4.7c0,1.9,0.2,3.9-0.7,5.6c-1.1,2.3-3.4,3.8-5.6,5.1
		c-3.8,2.2-7.9,4-12,5.5c-1.8,0.6-3.6,1.4-5.5,1.8c-0.1-3.6-0.1-7.3-0.2-10.9c0-2.6-0.4-5.2,0.1-7.8c0.4-2.6,1.9-4.8,3.6-6.7
		c3.4-3.7,7.3-6.9,10.7-10.6c1.1-1.1,2-2.4,2.5-4c0.7-2.2,0.6-4.6,0.7-6.8c0-9.5,0-19,0-28.6C120.7,46,121.2,45,122.1,44.6
		 M112.6,99.9c-1.7,1.6-3.1,3.7-3.4,6c-0.4,2.6-0.1,5.3,0,7.9c1.2-0.3,2.4-0.9,3.6-1.3c2-0.8,4.1-1.6,5.7-3c1.4-1.3,1.9-3.1,2.1-4.9
		c0.4-3.4,0-6.9-0.2-10.3C117.7,95.9,115,97.7,112.6,99.9z"/>
	<path d="M74.3,44.6c1.2-0.5,2.6-0.5,3.7,0.3c0.6,0.5,1,1.3,1,2.1c0,6,0,12,0,18c0,4.3,0,8.7,0,13c0.1,1.8,0.2,3.7,1,5.3
		c0.8,1.8,2.4,3.2,3.7,4.7c2.8,2.7,5.7,5.3,8.3,8.1c1.6,1.7,3.1,3.5,3.9,5.7c0.6,1.7,0.8,3.6,0.7,5.4c-0.1,5.1-0.2,10.1-0.3,15.2
		c-3.8-1.1-7.5-2.5-11.1-4.1c-2.8-1.3-5.6-2.6-8.1-4.3c-1.8-1.2-3.5-2.7-4.2-4.8c-0.8-2.3-0.1-4.8-0.4-7.1
		c-0.2-6.4-0.2-12.8-0.2-19.1c0-5.4,0.1-10.9,0-16.3c0.1-2.8,0-5.6,0.1-8.4c0-3.6,0.1-7.2,0.1-10.9C72.5,46.2,73.2,45.1,74.3,44.6
		 M79.2,94.2c-0.2,1.9-0.3,3.8-0.4,5.7c0,2.6-0.1,5.3,1,7.8c0.9,1.9,2.9,3,4.8,3.8c1.9,0.9,3.9,1.5,5.8,2.4c0.2-2.5,0.5-5.1,0.1-7.6
		c-0.3-2.2-1.4-4.3-3-5.9C85.1,97.9,82.1,96.1,79.2,94.2z"/>
	<path d="M188.7,104.7c2.3-1.3,4.5-2.8,6.4-4.6c-1.9,6.4-4.9,12.6-9.1,17.8c-4,5.1-9.2,9.2-14.8,12.3c-4.3,2.4-8.9,4.1-13.7,5.4
		c-4.1,1.1-8.3,1.9-12.5,2.7c-6.4,1.2-12.7,2.4-19,3.8c-6.3,1.5-12.7,3.2-18.5,6.2c-1.5,0.8-2.9,1.8-4.4,2.7c0.4-3.4,0.1-6.8,0-10.2
		c0-3,0-6.1,1.1-9c1-2.7,2.9-5,5.2-6.6c3.1-2.3,6.6-3.8,10.2-5.1c6.9-2.4,14.2-3.4,21.4-4.4c6-0.8,12-1.4,18-2.5
		c5.5-0.9,11.1-2,16.5-3.5C180.1,108.6,184.6,107,188.7,104.7 M178.7,116c-2,0.8-4.2,1.5-6.3,2.1c-10.8,3-22,4.6-33.1,6.3
		c-6.1,1-12.2,1.8-18.1,3.6c-3.3,1-6.7,2.3-9.1,4.9c-2,2.1-2.9,4.9-3.4,7.6c4.2-1.6,8.4-2.9,12.8-3.9c6-1.4,12-2.5,18-3.7
		c5.8-1.1,11.5-2.3,17.2-4c4.4-1.3,8.7-3,12.7-5.4C172.9,121.4,176,118.9,178.7,116z"/>
	<path d="M4.4,100.2c2.9,2.7,6.3,4.7,9.9,6.3c7.1,3.1,14.6,4.8,22.2,6.2c4.5,0.8,8.9,1.5,13.4,2.1c7.9,1,15.9,1.9,23.7,3.7
		c4.1,1,8.1,2.3,11.9,4.2c2.6,1.3,5.1,2.9,7,5c1.7,1.8,2.8,4.1,3.2,6.6c1,5.6-0.2,11.3,0.5,16.9c-2.3-1.6-4.7-3-7.2-4.2
		c-4.4-2-9.1-3.3-13.8-4.4c-7.8-1.8-15.6-3.2-23.4-4.7c-3.6-0.7-7.3-1.4-10.8-2.5c-7-2-13.7-5.1-19.5-9.5c-5.2-4-9.5-9-12.6-14.7
		C7,107.7,5.4,104,4.4,100.2 M20.8,116.1c1.8,1.9,3.7,3.6,5.8,5.2c5.1,3.8,11,6.2,17.1,7.9c8.1,2.3,16.5,3.7,24.8,5.4
		c7.5,1.5,15,3.1,22.1,5.9c-0.4-2.8-1.4-5.6-3.4-7.6c-2-2.1-4.7-3.4-7.5-4.3c-3.5-1.2-7.1-1.9-10.7-2.6c-7.9-1.4-15.9-2.5-23.9-3.9
		C36.9,120.6,28.7,118.9,20.8,116.1z"/>
	<path d="M11.9,124.3c2.4,2.5,4.9,5,7.8,6.9c5.7,4,12.3,6,18.9,7.9c11.6,3.4,23.5,5.3,35.3,7.9c3.9,0.9,7.8,1.9,11.5,3.5
		c2.7,1.2,5.2,2.8,7,5.1c1.8,2.3,2.6,5.1,2.9,8c0.4,3.3-0.1,6.7,0.3,10c0.1,4.8-0.1,9.5-0.1,14.3c-6.9,0-13.9,0-20.8,0
		c0-3.8,0-7.5,0-11.3c-0.1-1.9-0.4-3.8-1.6-5.3c-1.4-1.9-3.7-2.9-5.9-3.6c-4-1.3-8.2-1.9-12.3-2.9c-4-1.1-8-2.4-12-3.8
		c-9.4-3-18-8.8-23.7-16.9C15.1,138.2,12.5,131.3,11.9,124.3 M25.3,141.5c1.2,2,2.7,3.8,4.4,5.4c4.4,4,9.9,6.6,15.5,8.6
		c7.2,2.5,14.6,4.3,22,6.2c3.4,1,7,1.9,10,3.8c1.9,1.2,3.3,3.3,3.5,5.6c0.3,3.3,0.5,6.6,0.3,9.9c2.8,0,5.6,0,8.4,0
		c0-3.8,0-7.6,0-11.3c0-3.2-0.5-6.6-2.3-9.3c-1.4-2.1-3.5-3.6-5.8-4.5c-2.1-0.9-4.3-1.3-6.6-1.7c-9.1-1.9-18.2-3.7-27.3-5.6
		C39.8,146.9,32.4,144.7,25.3,141.5z"/>
	<path d="M177.4,132.5c3.7-2.2,6.8-5.1,9.8-8.2c-0.7,6.8-3.1,13.5-7,19.2c-5.4,7.9-13.6,13.7-22.6,16.9c-3.9,1.3-7.7,2.7-11.6,3.8
		c-4.7,1.4-9.6,1.9-14.2,3.4c-2.1,0.7-4.2,1.6-5.7,3.4c-1.2,1.4-1.6,3.3-1.7,5.2c0,3.9,0.1,7.8,0,11.7c-6.9,0-13.9,0-20.8,0
		c-0.1-2.8-0.1-5.6-0.1-8.3c0-2.6-0.1-5.3,0.1-7.9c0.2-2.2-0.2-4.4,0-6.6c0.1-3.2,0.9-6.6,2.9-9.2c1.6-2.2,4-3.8,6.4-5
		c3.7-1.7,7.6-2.7,11.6-3.6c10.4-2.4,21.1-4.1,31.4-6.8c3.5-0.9,7-2,10.5-3.1C170.3,136,174,134.6,177.4,132.5 M156.7,147.4
		c-4.5,1.2-9.1,2-13.7,3c-6.4,1.3-12.9,2.6-19.3,4c-2.3,0.5-4.6,0.9-6.7,1.9c-2.5,1.1-4.6,3.1-5.8,5.6c-1.3,2.7-1.6,5.8-1.5,8.7
		c0,3.5,0,7,0,10.4c2.8,0,5.6,0,8.4,0c0-3.1,0-6.2,0.3-9.2c0.1-1.8,0.7-3.6,1.9-4.9c1.6-1.7,3.8-2.7,5.9-3.5c2.6-1,5.4-1.7,8.1-2.4
		c5-1.3,10-2.6,14.9-4c6.3-1.9,12.6-4.2,17.9-8.2c2.7-2,5-4.4,6.7-7.3C168.3,144,162.5,145.9,156.7,147.4z"/>
</g>
</svg>
