<svg version="1.1" xmlns="http://www.w3.org/2000/svg" viewBox="0 0 200 200">
<g>
	<path d="M118.7,65.6c-2.6-2.4-5.2-4.6-7.6-7c-1-0.9-2-1.3-3.3-1.6c-0.3,0.1-0.6,0.1-1,0.3c-5.2,2.8-10.4,5.6-15.6,8.5
		c-1.7,1-0.9,2,0.3,2.8c2.6,1.5,5.1,3.3,7.8,4.2c3,1,6.2,2,9.6,0.3c2.8-1.4,6-2.3,9-3.3C120.6,68.9,120.6,67.5,118.7,65.6z"/>
	<path d="M190.3,120.5c-4.1-16.5-13.4-30.1-25.5-41.8c-26.9-26-58.9-42-96.3-46.4c-12.9-1.5-25.8-0.5-37.8,4.9
		c-14,6.3-22.4,16.5-22.5,32.3c0,13,5.1,24.5,12.4,35c19.8,28.5,47.2,46.4,79.7,57.3c11.2,3.8,22.8,5.5,34.5,6.4c2.7,0,5.5,0,8.2,0
		c7.8-1,15.7-1.6,23.3-4.2C186.5,157.1,195.4,141,190.3,120.5z M153.7,150.6c-16.9,4.7-33.6,3.3-50.2-1.5c-28.7-8.3-53-23.4-71-47.5
		c-7.5-10.1-13-21.3-12.3-34.5c0.6-9.9,5.4-17.3,13.9-22.7c3.8-2.4,7.4-4.1,12.1-5.5c4.8-1.3,9.4-2,14.2-2.3c2.5-0.1,4.9,0,7.5,0.4
		c11.8,1.4,23.4,2.7,34.5,7.4c16.7,5.6,31.6,14.4,45,25.6c6.7,5.6,12.8,11.6,17.6,18.8c6.4,8.4,11.2,17.4,12.3,27.8
		C179.2,133.7,170.7,145.8,153.7,150.6z"/>
	<path d="M161,88.6c-7.6-10-16.9-18.5-27.3-25.6c-5.3-3.5-10.7-6.8-16.4-9.6c-5.4-2.7-10.4-4.9-16.4-7.2c-3.1-1.1-4.6-1.5-6.6-2.1
		c-8.4-2.5-16.8-4-25.4-5.2c-2.1-0.3-5.1-0.5-7.2-0.5c-1.4,0.1-3.3,0.2-5,0.5c-0.5,0.2-1,0.2-6.2,1.3c-2.4,0.8-3.6,1.4-5.1,2
		c-10.7,4-18.8,10.5-20.8,22.5c-1.4,7.8,0.8,15.2,4,22.2c5.9,13.4,15.4,23.9,26.7,32.9C72,133.4,91,142.7,112.3,147
		c11.7,2.4,23.6,2.9,35.5,0.2c5.3-1.2,10.2-3,14.6-6.2c8.7-6.4,11.7-15.2,10.3-25.7c-1-7.2-3.7-13.9-7.3-20.1 M136.7,115.6
		c-0.2,1.5-1.3,2-2.9,1.8c-2.6-0.2-5.7-3-5.7-5.1c0.1-1.8,1.4-2.1,2.8-1.9C133.6,110.7,136.8,113.5,136.7,115.6z M73.1,67.8
		c-0.9,0-1.6-0.1-2.4,0.8c-1.3,1.5-3,1.2-4.4,0.4c-4.2-2.3-8.3-1.5-12.8-1.3c-5.3,0.2-8.5,3.4-12.5,5.6c-1.6,0.9-3.8,1.3-3.3,4.4
		c0.2,1.6-2,2.3-3.8,1.7c-1.9-0.5-4.2-1.4-3.9-3.8c0.3-2.4,2.5-1.8,4.3-1.8c1.3,0.5,2.4-0.1,3.4-0.8c2.8-1.8,5.7-3.5,8.5-5.4
		c0.8-0.4,1.6-0.8,1.6-1.8c-0.1-4.1,2.5-3.3,4.7-2.5c4.2,1.7,8.2,3.2,12.7,1c0.5-0.3,1.6-0.2,2.1,0.1c3.4,2,7.2,1.8,10.9,1.6
		c5.3-0.2,10.4-1,15.2-3.7c3.3-1.9,6.8-3.7,10.1-5.6c1-0.5,2.4-0.8,1.8-2.6c-0.2-1,0.8-1.4,1.7-1.4c1.8,0,3.5,0.6,4.5,2.1
		c3,5.3,7.4,8.9,12.7,11.7c1.3,0.6,3,1.5,2.4,3.2c-0.6,1.8-2.3,1-3.5,0.5c-1-0.3-1.9-0.3-2.9,0c-4,1.4-7.8,2.9-11.8,4.3
		c-0.6,0.2-1.3,0.3-1.7,1.2c-1.6,3-3.5,3.4-6,1C93.1,69.4,83.5,67.2,73.1,67.8z M148.3,138.8c-1.4,2-3.5,1-5.3,0
		c-1.6-1-3.4-2.3-3.4-4.1c0.1-2.9-1.7-4.5-3.2-6.3c-5.3-6-10.6-12-15.8-18.2c-1.9-2.3-3.7-3.2-6.4-1.5c-1.8,1.1-3.9,1.7-5.8,2.5
		c-1.4,0.5-2.5,0.9-2.3,3.1c0.2,2.4-2.4,3.1-5.2,1.6c-2-1.1-4.2-2.6-3.1-5.2c1.1-2.4,3.3-1.4,5.2-0.5c0.5,0.2,1.3,0.6,1.7,0.4
		c3.9-1.8,8.3-2.5,11.5-5.6l0,0c-2.7-2.9-5.3-5.8-8-8.7c-1.1-1.2-2.1-2.3-3.8-2.8c-1.8-0.6-3.8-1.7-3.7-4.1c0-1.1,1.1-1.7,2.1-1.6
		c2.4,0.1,5.1,1,5.4,3.2c0.5,4.6,4.2,6.7,6.4,9.8c0.8,1.1,1.6,2.1,2.5,3.2c3.2,0.9,8.2-1.5,8.7-4.4c0.2-1.5,1.1-1.8,2.3-1.8
		c1.5,0.1,2.9,0.6,4.1,1.7c1,1,2.6,1.9,1.5,3.7c-0.9,1.5-2.5,1.2-3.7,0.6c-3.8-1.9-6.2,1.2-9.2,2.1c-1.3,0.4-0.3,1.4,0.1,2
		c6.6,7.6,13.2,15.3,20,22.8c1.4,1.6,4,1.4,5.5,2.9C147.9,135.3,149.7,136.8,148.3,138.8z"/>
</g>
</svg>
