<svg version="1.1" xmlns="http://www.w3.org/2000/svg" viewBox="0 0 200 200">
<g>
	<g>
		<path fill="none" d="M65.4,155.6L65.4,155.6L65.4,155.6l-7.1-13c-2.5-3.3-5-5.4-8-5.8c-0.4-0.1-0.8-0.1-1.2-0.1c0,0-0.1,0-0.1,0
			c-2.2,0-3.7,1.1-5.1,2.6c-1.7,1.9-3.2,4.5-5.2,6.6l0,0l0,0c-2.1,2.1-4.8,2.8-7.1,3.6c-2.3,0.8-4.1,1.7-5.4,4.1l0,0
			c-1,1.8-0.8,4.4-0.3,7.3c0.4,2.9,1.1,5.9,0.2,8.7l0,0l0,0c-1.8,5-1.8,7.9-1,9.6c0.9,1.7,2.7,2.6,5.6,3.2
			c5.8,1.2,14.7,0.8,22.3,4.8c0,0,0,0,0,0c6.8,3.6,13.6,4.7,18.7,3.6c5-1.2,8.3-4.3,8.8-10.1v0l0,0c0.3-3.4-2.3-7.9-5.7-12.3
			C71.3,163.9,67.3,159.6,65.4,155.6z"/>
		<path fill="none" d="M168.6,158.1L168.6,158.1c-2-2.2-2.5-5.4-3.2-8.3c-0.7-2.9-1.4-5.5-3-6.8l0,0l0,0c-2.1-1.8-4.2-2-6.6-1.9
			c-0.5,0-1.1,0-1.6,0.1c-2.8,3.2-9.4,7.1-14,5.9c-4.2-1.1-6.6-5.9-6.9-10.7c-0.1,0.1-0.2,0.1-0.4,0.2c-2.6,1.4-4.1,3.9-5,7.7
			c-0.9,3.7-1.2,8.6-1.5,14.1v0c-0.3,4.3-2.2,9.6-3.6,14.8c-1.4,5.2-2.1,10.1-0.4,13.2l0,0l0,0c2.6,5.3,7.1,7.4,12.3,7
			c5.2-0.4,11.1-3.6,15.9-9.3c5.6-6.7,14.2-9.3,19.2-12.3c2.5-1.5,3.8-2.8,3.9-4.7C173.7,165.3,172.5,162.4,168.6,158.1L168.6,158.1
			z"/>
		<path d="M81.2,65.7c0.7,0.7,1.7,1.6,2.9,2.6c2.4,1.9,5.7,3.9,10,3.9c5.3,0,7.1-1.6,11.6-3.9c1.8-0.9,4-2.6,5.4-3.8
			c1.4-1.2,2.1-2.3,1.1-2.4c-1-0.1-1,1-2.2,1.8c-1.6,1.2-3.5,2.7-5.1,3.6c-2.7,1.5-7.1,3.7-10.9,3.7c-3.8,0-6.8-1.8-9.1-3.5
			c-1.1-0.9-2.1-1.8-2.8-2.5c-0.6-0.5-0.7-1.7-1.6-1.8C80,63.2,79.9,64.7,81.2,65.7z"/>
	</g>
	<g>
		<path fill="none" d="M65.4,155.6L65.4,155.6L65.4,155.6l-7.1-13c-2.5-3.3-5-5.4-8-5.8c-0.4-0.1-0.8-0.1-1.2-0.1c0,0-0.1,0-0.1,0
			c-2.2,0-3.7,1.1-5.1,2.6c-1.7,1.9-3.2,4.5-5.2,6.6l0,0l0,0c-2.1,2.1-4.8,2.8-7.1,3.6c-2.3,0.8-4.1,1.7-5.4,4.1l0,0
			c-1,1.8-0.8,4.4-0.3,7.3c0.4,2.9,1.1,5.9,0.2,8.7l0,0l0,0c-1.8,5-1.8,7.9-1,9.6c0.9,1.7,2.7,2.6,5.6,3.2
			c5.8,1.2,14.7,0.8,22.3,4.8c0,0,0,0,0,0c6.8,3.6,13.6,4.7,18.7,3.6c5-1.2,8.3-4.3,8.8-10.1v0l0,0c0.3-3.4-2.3-7.9-5.7-12.3
			C71.3,163.9,67.3,159.6,65.4,155.6z"/>
		<path fill="none" d="M123.9,158.2C123.9,158.2,123.9,158.2,123.9,158.2c0.3-5.5,0.6-10.5,1.6-14.6c1-4.1,2.8-7.4,6.2-9.2
			c0.5-0.3,1.1-0.5,1.6-0.7c0-0.3,0.1-0.7,0.1-1c1-6.4,6.7-6.7,13.8-3.5c6.9,3.1,9.5,5.8,8.3,9.5c0,0,0.1,0,0.1,0c0.5,0,0.9,0,1.4,0
			c1.4-4.7-1.5-8.1-9.6-12c-0.5-0.3-1.1-0.5-1.6-0.7c1.1-4.4,0.9-8.8-0.1-13c-2.2-9.2-8.2-17.4-12.8-21.5c-0.9,0-0.8,0.7,0.9,2.4
			c4.2,3.9,13.5,17.9,8.5,30.9c-1.4-0.4-2.8-0.5-4-0.5c-1.9-10.6-6.4-19.4-8.6-23.5c-4.2-7.8-10.7-23.8-13.5-34.9
			c-1.6,2.3-4.5,4.3-8.1,5.5c0,0,0,0,0,0c-1.7,0.6-3.5,2-5.8,3.3c-2.1,1.2-4.6,2.2-7.8,2.2c-0.3,0-0.6,0-0.9,0
			c-3.1-0.2-5.2-1.3-6.8-2.6c-1.6-1.3-2.9-2.8-4.6-3.8c0,0,0,0,0,0c-0.6-0.3-1.9-1.2-2.2-1.5c-0.7,13.8-9.9,31.1-14.3,41.1
			c-3,7.2-4.8,14.9-5,22.4c-7.9-10.6-2.1-24.2,1-30c3.5-6.4,4-8.2,3.2-7.6c-3.1,5.1-8,13.2-9.9,21.6c-1,4.3-1.2,8.8,0.1,12.8
			c1.3,4.1,4,7.8,9,10.9c0,0,0,0,0,0c6.7,4.1,11.3,8.2,13.9,11.9c2.7,3.6,3.5,6.8,2.7,9.1c-0.4,1.1-1.3,2-2.5,2.6
			c-1,0.4-2.2,0.7-3.6,0.7c0.7,0.9,1.4,1.8,2.1,2.7c1.1,1.4,2.2,2.9,3.1,4.4c13.8,9.4,30,5.8,41.7-2.6
			C122.6,164.7,123.8,160.9,123.9,158.2z"/>
		<path fill="none" d="M168.6,158.1L168.6,158.1c-2-2.2-2.5-5.4-3.2-8.3c-0.7-2.9-1.4-5.5-3-6.8l0,0l0,0c-2.1-1.8-4.2-2-6.6-1.9
			c-0.5,0-1.1,0-1.6,0.1c-2.8,3.2-9.4,7.1-14,5.9c-4.2-1.1-6.6-5.9-6.9-10.7c-0.1,0.1-0.2,0.1-0.4,0.2c-2.6,1.4-4.1,3.9-5,7.7
			c-0.9,3.7-1.2,8.6-1.5,14.1v0c-0.3,4.3-2.2,9.6-3.6,14.8c-1.4,5.2-2.1,10.1-0.4,13.2l0,0l0,0c2.6,5.3,7.1,7.4,12.3,7
			c5.2-0.4,11.1-3.6,15.9-9.3c5.6-6.7,14.2-9.3,19.2-12.3c2.5-1.5,3.8-2.8,3.9-4.7C173.7,165.3,172.5,162.4,168.6,158.1L168.6,158.1
			z"/>
		<path fill="none" d="M82.9,69.1L82.9,69.1L82.9,69.1c1.9,1.1,3.3,2.7,4.8,3.9c0.8,0.6,1.6,1.2,2.5,1.6s2.1,0.7,3.5,0.8
			c3.3,0.2,5.7-0.8,7.9-2c2.1-1.2,4-2.7,6.1-3.4l0,0l0,0c4.3-1.3,7.3-4,8.3-6.6c0.5-1.3,0.5-2.5-0.1-3.6c-0.6-1.1-1.7-2.2-3.7-3l0,0
			l0,0c-4.1-1.8-5.9-1.9-8.2-3.4c-3.8-2.4-6.9-3.3-9.4-3.2c-1.4,0-2.6,0.2-3.6,0.6c-3.1,1.1-5.2,3.3-6.5,4.6l0,0c0,0,0,0,0,0
			c-0.3,0.2-0.6,0.5-1.4,1.1c-0.8,0.6-2,1.5-3.8,2.8c-1.5,1.2-2,2.7-1.5,4.4C78.1,65.3,79.8,67.3,82.9,69.1z"/>
		<path d="M170.5,156.5C170.5,156.5,170.5,156.5,170.5,156.5c-1.3-1.5-2-4.3-2.6-7.2c-0.7-2.9-1.4-6.1-3.8-8.2c0,0,0,0,0,0
			c-0.5-0.4-1-0.8-1.5-1.1c-0.5-0.3-1-0.5-1.5-0.7c3.4-10,2-19.9-1.3-28.8c-4.2-11-11.4-20.6-17-27.1c-6.2-7.8-12.3-15.3-12.2-26.2
			c0.2-16.7,1.8-47.8-27.6-47.9c-1.2,0-2.4,0-3.8,0.2C66.2,12.1,75,46.9,74.5,58.6c-0.6,8.5-2.3,15.2-8.2,23.6
			c-6.9,8.2-16.6,21.4-21.2,35.2c-2.2,6.5-3.2,13.1-2.2,19.4c-0.3,0.3-0.6,0.5-0.9,0.8c-2,2.2-3.5,4.8-5.2,6.5
			c-1.6,1.6-3.8,2.1-6.2,3c-2.4,0.9-5.1,2.2-6.7,5.3c0,0,0,0,0,0c0,0,0,0,0,0c-0.8,1.4-1,3-1,4.5c0,1.4,0.2,2.9,0.4,4.3
			c0.4,2.9,0.9,5.7,0.3,7.6c-1.9,5.3-2.2,8.9-0.8,11.6c1.4,2.6,4.2,3.8,7.3,4.5c6.3,1.3,14.9,1,21.6,4.6l0.6-1.1l-0.6,1.1
			c7.2,3.8,14.5,5.1,20.4,3.8c4.2-1,7.7-3.5,9.4-7.4c4.6,0,9.6-2,17.6-2.4c5.4-0.4,12.3,1.9,20.1,1.5c0.2,0.8,0.5,1.7,0.9,2.4
			c0,0,0,0,0,0c3,6.1,8.7,8.8,14.7,8.4c6-0.5,12.4-4,17.6-10.2l-0.9-0.8l1,0.8c4.9-6,13.1-8.5,18.5-11.7c2.7-1.6,4.9-3.7,5.1-6.7
			C176.2,164.3,174.5,160.9,170.5,156.5z M97.7,47.1c0-2.2,0.3-4.1,1.2-6c0.8-1.9,1.9-3.3,3.3-4.4c1.5-1.1,2.9-1.6,4.6-1.6h0.1
			c1.7,0,3.1,0.5,4.6,1.6c1.5,1.1,2.6,2.4,3.4,4.3c0.8,1.8,1.3,3.6,1.3,5.8c0,0.1,0,0.1,0,0.2c0,2.2-0.4,4.1-1.2,6
			c-0.5,1.1-1,2-1.7,2.8c-0.2-0.1-0.5-0.2-0.7-0.3c-0.8-0.4-1.6-0.6-2.2-0.9c-0.7-0.2-1.2-0.4-1.7-0.6c0.4-0.5,1.1-1,1.4-1.7
			c0.4-1,0.6-2,0.7-3.2c0,0,0-0.1,0-0.1c0-1.2-0.1-2.1-0.5-3.1c-0.4-1.1-0.8-1.8-1.4-2.5c-0.7-0.6-1.3-0.9-2.1-0.9c0,0-0.1,0-0.1,0
			c-0.7,0-1.4,0.3-2,0.8c-0.7,0.6-1.2,1.3-1.6,2.3c-0.4,1-0.6,2-0.7,3.3c0,0,0,0.1,0,0.1c0,0.7,0,1.3,0.1,1.9
			c-1.5-0.7-3.4-1.3-4.7-1.6c-0.1-0.6-0.1-1.2-0.1-1.8V47.1z M78.2,42.4c0.5-1.7,1.2-2.9,2.2-3.9c1-1,2-1.5,3.3-1.6
			c0.1,0,0.2,0,0.3,0c1.1,0,2.1,0.4,3.1,1.2c1.1,0.9,2,2,2.7,3.6c0.7,1.6,1.1,3.2,1.2,5.1v0c0.1,0.8,0,1.5,0,2.3
			c-0.2,0.1-0.4,0.1-0.6,0.2c-1.2,0.4-2.1,0.9-3.1,1.5c0.1-0.6,0.1-1.3,0-2c0,0,0-0.1,0-0.1c-0.1-1-0.3-1.8-0.6-2.6
			c-0.4-0.8-0.8-1.4-1.3-1.9c-0.5-0.4-0.9-0.6-1.4-0.6c-0.1,0-0.1,0-0.2,0c-0.6,0-1,0.3-1.5,0.9c-0.4,0.5-0.7,1.2-0.9,2.1
			c-0.2,0.9-0.3,1.7-0.2,2.7c0,0,0,0.1,0,0.1c0.1,1,0.3,1.8,0.6,2.6c0.4,0.8,0.8,1.4,1.3,1.9c0.1,0.1,0.2,0.1,0.3,0.2
			c-0.5,0.4-0.9,0.7-1.4,1.1c-0.3,0.2-0.6,0.5-1,0.8c-0.9-0.8-1.6-1.8-2.1-3.2c-0.7-1.6-1.1-3.2-1.2-5.1v0
			C77.5,45.7,77.7,44.1,78.2,42.4z M79.1,59.1c1.7-1.3,2.9-2.2,3.8-2.8c0.8-0.6,1.1-0.8,1.4-1.1c0,0,0,0,0,0l0,0
			c1.3-1.2,3.4-3.5,6.5-4.6c1.1-0.4,2.3-0.6,3.6-0.6c2.6,0,5.7,0.8,9.4,3.2c2.3,1.5,4.1,1.6,8.2,3.4l0,0l0,0c2,0.8,3.2,1.9,3.7,3
			c0.6,1.1,0.6,2.3,0.1,3.6c-1,2.6-4,5.2-8.3,6.6l0,0l0,0c-2.1,0.7-3.9,2.2-6.1,3.4c-2.1,1.2-4.6,2.2-7.9,2
			c-1.4-0.1-2.5-0.4-3.5-0.8s-1.8-1-2.5-1.6c-1.5-1.2-2.8-2.8-4.8-3.9l0,0l0,0c-3.1-1.8-4.8-3.8-5.4-5.6
			C77.1,61.7,77.6,60.2,79.1,59.1z M80.3,180.7L80.3,180.7L80.3,180.7c-0.4,5.8-3.7,9-8.8,10.2c-5,1.2-11.9,0-18.7-3.6c0,0,0,0,0,0
			c-7.5-4-16.5-3.6-22.3-4.8c-2.9-0.6-4.8-1.5-5.6-3.2c-0.9-1.7-0.9-4.6,1-9.6l0,0l0,0c0.9-2.8,0.2-5.9-0.2-8.7
			c-0.4-2.9-0.7-5.5,0.3-7.3l0,0c1.3-2.4,3.1-3.3,5.4-4.1c2.3-0.8,5-1.5,7.1-3.6l0,0l0,0c2-2.1,3.5-4.7,5.2-6.6
			c1.5-1.6,2.9-2.6,5.1-2.6c0,0,0.1,0,0.1,0c0.4,0,0.8,0,1.2,0.1c2.9,0.4,5.5,2.5,8,5.8l7.1,13l0,0l0,0c1.9,4,5.9,8.3,9.3,12.7
			C78,172.8,80.7,177.3,80.3,180.7z M79.7,171.3c-0.9-1.5-2-2.9-3.1-4.4c-0.7-0.9-1.4-1.8-2.1-2.7c1.4,0,2.6-0.2,3.6-0.7
			c1.2-0.6,2.1-1.4,2.5-2.6c0.8-2.3,0-5.4-2.7-9.1c-2.7-3.6-7.2-7.7-13.9-11.9c0,0,0,0,0,0c-4.9-3.1-7.7-6.8-9-10.9
			c-1.3-4.1-1.1-8.5-0.1-12.8c1.9-8.3,6.8-16.5,9.9-21.6c0.8-0.6,0.3,1.1-3.2,7.6c-3.1,5.9-8.9,19.4-1,30c0.2-7.5,2-15.2,5-22.4
			c4.4-10,13.6-27.3,14.3-41.1c0.4,0.3,1.7,1.1,2.2,1.5c0,0,0,0,0,0c1.7,1,3,2.4,4.6,3.8c1.6,1.3,3.7,2.5,6.8,2.6c0.3,0,0.6,0,0.9,0
			c3.2,0,5.7-1,7.8-2.2c2.3-1.3,4.1-2.7,5.8-3.3c0,0,0,0,0,0c3.6-1.1,6.5-3.1,8.1-5.5c2.8,11.1,9.3,27.1,13.5,34.9
			c2.2,4.1,6.7,12.9,8.6,23.5c1.2,0,2.6,0.1,4,0.5c5-13-4.3-27-8.5-30.9c-1.7-1.7-1.8-2.4-0.9-2.4c4.6,4.1,10.6,12.2,12.8,21.5
			c1,4.2,1.2,8.6,0.1,13c0.5,0.2,1.1,0.5,1.6,0.7c8.1,3.9,11,7.3,9.6,12c-0.5,0-0.9,0-1.4,0c0,0-0.1,0-0.1,0
			c1.2-3.7-1.4-6.4-8.3-9.5c-7.1-3.1-12.8-2.8-13.8,3.5c-0.1,0.3-0.1,0.7-0.1,1c-0.5,0.2-1.1,0.4-1.6,0.7c-3.4,1.8-5.2,5.2-6.2,9.2
			c-1,4.1-1.3,9-1.6,14.6c0,0,0,0,0,0c-0.2,2.8-1.3,6.6-2.5,10.6C109.7,177,93.5,180.7,79.7,171.3z M173.6,167.1
			c-0.1,1.8-1.4,3.2-3.9,4.7c-4.9,3-13.6,5.5-19.2,12.3c-4.8,5.7-10.7,8.9-15.9,9.3c-5.2,0.4-9.6-1.7-12.3-7l0,0l0,0
			c-1.6-3.1-1-8,0.4-13.2c1.4-5.2,3.4-10.5,3.6-14.8v0c0.3-5.5,0.6-10.4,1.5-14.1c0.9-3.7,2.4-6.3,5-7.7c0.1-0.1,0.2-0.1,0.4-0.2
			c0.3,4.8,2.7,9.7,6.9,10.7c4.6,1.2,11.2-2.7,14-5.9c0.6,0,1.1-0.1,1.6-0.1c2.5-0.1,4.5,0.1,6.6,1.9l0,0l0,0c1.6,1.4,2.4,4,3,6.8
			c0.7,2.9,1.2,6,3.2,8.3l0,0l0,0C172.5,162.4,173.7,165.3,173.6,167.1z"/>
	</g>
	<path d="M96.6,53.6c0.1,0.5,0.9,0.4,1.3,0.6
		c0.4,0.2,0.7,0.6,1.1,0.6c0.4,0,1-0.1,1.1-0.5c0.1-0.5-0.7-0.8-1.2-1c-0.6-0.2-1.4-0.4-2,0C96.7,53.3,96.5,53.5,96.6,53.6
		L96.6,53.6z"/>
	<path d="M92.3,53.6c-0.1,0.5-0.9,0.4-1.3,0.6
		c-0.4,0.2-0.7,0.6-1.1,0.6c-0.4,0-1-0.1-1.1-0.5c-0.1-0.5,0.7-0.8,1.2-1c0.6-0.2,1.4-0.4,2,0C92.2,53.3,92.3,53.5,92.3,53.6
		L92.3,53.6z"/>
</g>
</svg>
