<svg version="1.1" xmlns="http://www.w3.org/2000/svg" viewBox="0 0 200 200">
<g>
	<path d="M116.2,174.3c1.1,0,2.3-0.1,3.3,0.4C105.9,189,83.4,176,101,160c4.2-3.4,10.6-4.8,13.2-10c3.1-14.7-25-1.7-22-15.7
		c1.3-2.7-2.6-3.1-1.9-5.5c0.4-2-3-2.5-1.1-4.7c4.7-6.7-13.5,1.2,0.5-13.5c1.1-1.3,1.5-2.7,0.8-4.1c-1.9-7.6,3.5-20.1,8-26.3
		c18.2-13.8,38.3-25.3,57.2-38.3c6.6-4.8,14.6-8.7,17.7-16.7c0.4-0.8,0.8-0.9,1.5-0.5c11,6.6,0.3,17.4-7.1,21.5
		c-13.9,8.7-27.6,17.7-41.3,26.9c-6.8,5.8-17.3,8.9-21.2,17.3c-1.2,5-6,10.8-3.2,15.8c1.9,3.7-3.2,6.7-4.6,9.8
		c-2.7,4.2,6,2.8,4.3,7.1c-0.8,2.2,2.5,1.6,1.9,3.4c-0.4,1.2-0.4,2.2,0.5,3.2c0.8,1.7-0.5,3.8,0.7,5.5c5.7,5.6,16.8-0.2,22.4,6.8
		c6.8,11.3-13.2,13-18.6,19C102.2,166.3,109.1,175.7,116.2,174.3z"/>
	<path d="M46.3,111.9c-4.3,0.2-10.4-3.4-13.5,0.8c-0.4,0.6-1.5,0.7-1.5-0.4c-0.1-21.1,24.7-8,36.8-10.3c5.5-4.2,5.7-16.5,9.2-23
		c2.8-8.8,8.4-16,16.8-20.2c14.3-9.1,28.6-18.1,42.8-27.3c9.2-6.4,21.4-11.3,24.6-23.1c0.2-0.8,0.7-1.3,1.5-0.8
		c10.9,6.1,1.6,18.2-6.2,22.3c-15.3,10.6-30.9,20.6-46.6,30.6C102.6,66.2,92,69.2,88,78.5c-5.5,13.9-7.2,37.2-27.5,34.9"/>
	<path d="M113.6,129.8c0.7-2.8-1.9-3.2-1.5-5.5c-0.8-1-1.8-1.8-1.3-3.3c0.5-3-6.6-2.1-4-5.8c1.1-2.1,3.3-4,3.2-6.5
		c-3.6-17.1,14.3-24.1,25.9-31.8c10.2-6.3,20.3-13,29.9-20.3c1-1,1.5-0.9,2.2,0.4c4.9,8.8-5.4,15.4-12,19.3
		c-10.5,6.5-21.2,12.9-31,20.4c-6,4.4-2.2,12.6-6.3,18c-1.5,2.7,3,1.9,2.6,4.3c-0.5,1.9,1.6,2.1,1.7,4c0.1,0.4,0.1,1,0.4,1.2
		c1.7,0.8,2.1,2.3,2.5,3.9c0.7,5.5,18.8-3.2,25.2,0.1c8.9,2.5,16.8,8.6,26.2,4.8c-3.4,7.6-13.2,13.3-21.5,10.7
		c-7.1-1.9-12.3-8.5-19.8-8.9C128.2,134.2,116.7,140.5,113.6,129.8"/>
	<path d="M70,181.1c-0.1-9.9,12.3-12.7,15.4-21c1.8-12.7-51.6-33.9-63.1-38.5c-1.9-1.4-5.8,2.9-5.8-0.5c2.4-18.3,33.6,2.5,43,5.7
		c7.4,5.3,47.7,20.8,37.8,31.7c-4.5,5.9-13.6,8.3-14.6,16.6c-1,7.4,6.4,9.6,11.8,11.1c2.4,2.3-6.4,5-8.3,5.5
		C78.7,194.3,69.6,189.9,70,181.1z"/>
</g>
</svg>
