<svg version="1.1" xmlns="http://www.w3.org/2000/svg" viewBox="0 0 200 200">
<g>
	<path d="M119,158.2c19.9,3.9,41.2,13.7,68.5,29.5c-5.3-9.9-10.2-18.9-14.8-27.5c-7.2-5.6-14.8-12.9-30.2-20.9
		c10.6,2.7,18.2,6,24.1,9.5c-26.9-50-39.6-75.1-48.5-94.6c-2.9-6.3-5.8-13.1-9.5-21.4c0-0.1-0.1-0.2-0.1-0.4
		c-0.1-0.4-0.2-0.7-0.4-1.1c-2.5-5.7-4.9-11.3-7.7-18.2l0,0c-0.1-0.2-0.2-0.5-0.4-0.7c-7.8,19.2-12.6,31.6-21.3,50.2
		c0,0,0,0.1,0.1,0.1l0,0c2.5,2.7,5.3,5.6,8.7,8.6c3.7,3.4,8.1,7,13.7,10.8c-11.4-4.7-19.2-9.3-24.9-14.3l0,0l0,0c-1,2-2,4.1-3,6.2
		c-0.5,1-1,1.9-1.5,3c-0.2,0.4-0.4,0.9-0.6,1.2c-1.5,3-3,6.1-4.7,9.3c-0.2,0.5-0.6,1-0.9,1.6c-1,1.9-4,7.6-7,13.4
		c-1.7,3.4-3.2,6.2-5.2,9.9c-0.6,1.1-1.7,3.2-2.1,3.9l0,0c-9.8,18.4-22.5,41.4-38.9,71.1c27.7-16,49.3-25.9,69.3-29.7
		c-0.9-3.7-1.4-7.7-1.2-11.9V145c0.5-17.8,9.7-31.5,20.6-30.6c10.9,0.9,19.5,16.2,19,34C120,152,119.6,155.2,119,158.2z"/>
	<polygon points="99.9,12.6 99.9,12.6 99.9,12.6 	"/>
</g>
</svg>
