<svg version="1.1" xmlns="http://www.w3.org/2000/svg" viewBox="0 0 200 200">

<path d="M100.3,14.4c-47.5-0.5-85.6,38-85.9,85.1c0,47.5,38.5,86,85.6,86c47,0,85.1-38.1,85.6-84.7
	C185.5,52.9,147.5,14.7,100.3,14.4z M137.7,53.5c-1.7,0-3.3-1-3.9-2.4l0,0c0-0.1-0.1-0.1-0.1-0.2c-0.1-0.1-0.1-0.2-0.1-0.3
	c-2.1-4.6-5.5-5.4-8.5-4.5c-4.2,1.2-7.9,6.5-10.1,16.1c-1.2,5-3.2,13.2-4.7,20.4l22.2,3.3l-1,7.2l-22.8-3.4
	c-1.2,4.5-1.9,7.6-1.9,7.6c-0.3,1.9-0.8,3.8-1.1,5.6l23.7,3.5l-1,7.2l-24.2-3.6c-8.6,37.2-17.3,44.1-25.3,46.7
	c-13,4.1-18.3-2.4-19.3-3.7c0,0,0-0.1-0.1-0.1c0,0,0,0,0,0l0,0c-0.5-0.7-0.7-1.5-0.7-2.4c0-2.5,2-4.6,4.6-4.6c1.7,0,3.3,1,3.9,2.4
	l0,0c0,0.1,0.1,0.1,0.1,0.2c0.1,0.1,0.1,0.2,0.1,0.3c2.1,4.6,5.5,5.4,8.5,4.5c4.2-1.2,7.9-6.5,10.1-16.1c1.7-7,4.8-20.6,6.7-28.6
	l-22.6-3.3l1-7.2l23.1,3.4c0.9-4.7,1.8-9.1,2.8-13.1l-24-3.5l1-7.2l24.7,3.6c7.9-30.1,15.9-36.1,23.2-38.5c13-4.1,18.3,2.4,19.3,3.7
	c0,0,0,0.1,0.1,0.1c0,0.1,0.1,0.1,0.1,0.1l0,0c0.5,0.7,0.7,1.5,0.7,2.4C142.3,51.5,140.3,53.5,137.7,53.5z"/>
</svg>
