<svg version="1.1" xmlns="http://www.w3.org/2000/svg" viewBox="0 0 200 200">
<g>
	<path class="st0" d="M67.9,95.8c1.7,0.9,3.3,1.1,4.1,1.1c3.7,0,6.5-2.2,7.4-5.8c0.4-1.3,0.4-2.2,0.4-3.5V61.1
		c-0.1-1.8-0.2-2.6-0.5-3.5c-1.1-3.2-3.9-5.2-7.2-5.3c-1.3,0-4.4,0.4-6.4,3.4c-1.2,1.7-1.4,3.3-1.5,5.3v27.2
		C64.3,89.6,64,93.5,67.9,95.8z"/>
	<path class="st0" d="M72,50.6c3.9,0,7-3.2,7-7.1s-3.2-6.8-7-6.8c-3.9,0-7.1,3.2-7.1,7C65,47.6,68.2,50.6,72,50.6z"/>
	<path class="st0" d="M51.6,55.2c-4-2.6-7.9-2.9-9.6-2.9c-5.4,0-8.8,2.4-10.4,3.8c-0.4,0.4-0.6,0.7-1.2,1.4V44.4
		c0-0.2,0-1.8-0.5-2.9c-0.9-2.9-4-4.7-7.1-4.7c-0.9,0-3.3,0.1-5.2,2c-2.6,2.4-2.5,5.7-2.6,8.8c0,0,0,0.1,0,0.2c0,0.5,0,0.9,0,1.5
		c0,0.8,0,1.7,0,2.4c0,0.8,0,1.8,0,2.6c0,0.8,0,1.5,0,2.2c0,0.2,0,0.5,0,0.8c0,0.1,0,0.1,0,0.2c0,0.2-0.2,0.1-0.4,0
		c-0.2-0.1-0.5-0.1-0.7-0.2c-0.4-0.1-0.8-0.2-1.1-0.5c-0.6-0.4-0.8-0.9-0.8-0.9c-0.1-0.1-0.1-0.4-0.1-0.5c0,0,0-0.1,0-0.2
		c0-0.2,0-0.5,0-0.7c0-0.1,0-0.2,0-0.4c0.1-0.1,0.2-0.1,0.4-0.2c0-0.1,0.1-0.4,0.1-0.4s0.1-0.5,0-0.8c0-0.1,0-0.2-0.2-0.2
		c0,0,0,0-0.1,0c-0.1,0,0,0,0,0c0-0.1,0-0.2,0-0.4s0-1.5-0.9-2.1c-0.9-0.6-1.3-0.6-2-0.4c-0.5,0.1-0.8,0.6-0.9,0.9
		c-0.1,0.2-0.4,0.6-0.5,0.8c-0.1,0.4,0,0.7,0,0.9c0,0.1,0,0.2,0,0.4s0,0-0.1,0c0,0-0.2,0-0.1,0.4c0,0.2,0.2,0.5,0.2,0.6
		c0,0.1,0,0.2,0.1,0.4c0,0,0.1,0.4,0.1,0.5s0.1,0.4,0.2,0.5c0.2,0.2,0.5,0.4,0.5,0.7c0,0.4,0,0.7-0.2,0.9c-0.5,0.6-1.1,0.8-1.7,1.2
		S6,58.9,5.6,59.5c-0.1,0.2-0.2,0.6-0.5,0.8c-0.4,0.5-0.8,0.8-1.1,1.4c-0.2,0.6-0.5,0.9-0.6,1.5c-0.1,0.5-0.2,1.1-0.1,1.7
		s0.9,0.7,1.5,0.9C5.3,66,5.8,66,6,66.2c0.2,0.4,0,0.9,0,1.4c-0.1,0.7-0.4,1.4-0.5,2.1c-0.1,0.4-0.1,0.8-0.2,1.1
		c0,0.4-0.2,0.9-0.1,1.4c0.1,0.5,0.7,0.6,0.7,1.2c0,0.5-0.2,1.1-0.4,1.7c-0.1,0.7,0,1.3,0,1.9c0.1,2,0.7,4,0.2,6
		c-0.1,0.6-0.2,1.1-0.2,1.7c0,0.9,0,2.1,0.1,3.1c0.1,0.8,0.2,1.7,0,2.5c0,0.1,0,0.2,0,0.4c0,0.2,0,0.4,0,0.6s0,0.4,0.1,0.6
		c0,0.4-0.2,0.8-0.6,1.1c-0.2,0.1-0.5,0.2-0.8,0.4c-0.2,0-0.4,0.1-0.7,0.2c-0.1,0-0.4,0.1-0.6,0.2c-0.1,0-0.2,0.1-0.4,0.2
		c0,0.1,0,0.1,0,0.2c0.2,0.5,0.8,0.8,1.3,0.8c0.6,0,1.1,0,1.7-0.1c0.5-0.1,1.1-0.5,1.7-0.4c0.7,0.1,1.9,0.2,2.6,0
		c0.6-0.2,0.2-0.9,0.1-1.4c-0.1-0.4-0.1-0.8-0.2-1.2c-0.1-0.5-0.2-0.8-0.2-1.3s0.1-0.8,0.1-1.3c0-1.1,0.4-2.2,0.4-3.3
		c0-0.4,0-0.8,0.1-1.1c0-0.4,0-0.8,0-1.2c0-0.6,0.2-0.9,0.5-1.4c0.2-0.6,0.4,0.1,0.4,0.4c0.1,0.5,0.2,0.9,0.2,1.4
		c0,0.5,0.1,0.8,0.2,1.2c0,0.1,0,0.2,0,0.2c0.1,0.7,0.1,1.3,0,2c-0.1,1.2-0.5,2.2-0.7,3.3c-0.1,0.6-0.2,1.2-0.4,1.7
		c0,0.4,0.1,0.6,0.2,0.8s0.4,0.7,0.1,0.9c0,0,0,0,0,0.1c0,0-0.1,0.1-0.1,0.2c-0.2,0.2-0.5,0.6-0.7,0.8c-0.5,0.6-0.2,1.3,0.5,1.4h0.1
		c0.5,0,0.9,0,1.4,0c0.4,0,0.7-0.1,0.9-0.4s0.1-0.6,0.6-0.8c0,0,0.6-0.4,0.8-0.5c0.2-0.1,0.1-0.5,0.1-0.6l-0.1-0.7c0,0,0-0.1,0-0.2
		c0-0.1,0-0.1,0-0.1s0-0.1,0-0.2s0.1-0.1,0.1-0.2c0-0.1,0-0.1,0-0.2s0-0.2,0-0.5c0-0.1,0-0.2,0-0.4v-0.1c0-0.5,0-0.9,0.1-1.4
		c0-0.2,0.1-0.5,0.1-0.7c0-0.1,0-0.4,0.2-0.4c0.1,0,0.1,0.1,0.1,0.2c0,0.1,0,0.2,0,0.5s0,0.6,0.1,0.8c0.2,1.3,0.7,2.4,1.5,3.4
		c0.5,0.7,1.2,1.2,1.9,1.7c1.7,0.8,3.1,0.9,3.8,0.9c1.3,0,2.5-0.4,2.9-0.6c1.9-0.8,2.9-2.1,4-3.8c0.5,0.4,0.9,0.9,1.7,1.4
		c0.8,0.6,1.7,0.9,2,1.2c1.8,0.8,4,1.9,8.4,1.9c8.8,0,13.3-5.1,15.2-7.9c3.8-5.7,4-12.4,4-14.5C60.6,67.3,58.2,59.6,51.6,55.2z
		 M44.6,74.6c0,2.9-0.5,7.3-2.5,9.8c-1.7,2-4,2.1-4.8,2.1c-4.4,0-5.8-3.5-6.3-5c-0.8-2.1-0.9-4.4-0.9-6.6c0-3.4,0.4-7.9,2.9-10.4
		c1.4-1.3,2.8-1.7,3.7-1.7c2.2-0.2,4.4,0.8,5.7,2.6C44.6,68.7,44.6,73.9,44.6,74.6z"/>
	<path class="st0" d="M51.2,120c-4-2.7-7.8-2.9-9.6-2.9c-5.3,0-8.8,2.4-10.4,3.8c-0.4,0.4-0.6,0.7-1.2,1.4v-13c0-0.2,0-1.8-0.5-2.9
		c-0.9-2.9-4-4.7-7.1-4.7c-0.9,0-3.3,0.1-5.2,2c-2.6,2.4-2.5,5.7-2.6,8.8v40.1c0,1.2-0.4,5.8,3.5,8c1.7,0.8,3.1,0.9,3.8,0.9
		c1.3,0,2.5-0.4,2.9-0.6c1.9-0.8,2.8-2.1,4-3.8c0.5,0.5,0.9,0.9,1.7,1.4c0.8,0.6,1.7,0.9,2,1.2c1.8,0.8,4,1.9,8.4,1.9
		c8.8,0,13.2-5.1,15.2-7.9c3.8-5.7,4-12.4,4-14.5C60,132,57.7,124.4,51.2,120z M44.1,139.3c0,2.9-0.4,7.3-2.5,9.8
		c-1.7,2-4,2.1-4.8,2.1c-4.4,0-5.8-3.5-6.3-5c-0.8-2.1-0.9-4.4-0.9-6.6c0-3.3,0.4-7.8,2.9-10.4c1.4-1.3,2.8-1.7,3.7-1.7
		c2.2-0.2,4.4,0.8,5.7,2.6C44.1,133.4,44.1,138.6,44.1,139.3z"/>
	<path class="st0" d="M88.7,117.3c-1.7-0.2-3.3-0.2-5.1-0.2c-5.9,0-13.2,1.2-17.1,6.1c-1.5,2-1.8,3.8-1.8,4.7c0,3.7,3.3,6,6.7,6
		c2.4,0,4.2-1.2,5.7-2.9c0.5-0.8,0.8-1.7,1.4-2.2c1.5-1.8,3.8-1.8,4.6-1.9c0.5,0,0.8,0,1.3,0c3.5,0,5.1,1.7,5.1,3.4
		c0,2.4-2.5,2.8-2.9,2.9c-4.6,1.1-12.5,2.1-16.7,4c-7,3.3-7.5,8.6-7.5,11.7c0,1.7,0,5.3,2.9,8.7c1.1,1.3,2.2,2,2.6,2.2
		c3.3,2,7.4,2.1,8.6,2.1c5.7,0,8.8-1.5,10.9-2.8c1.5-1.1,2.8-2.5,3.3-2.9c0.5,1.3,0.7,1.9,1.1,2.6c1.8,2.8,4.8,3.1,5.9,3.1
		c4.1,0,5.7-2.2,6.3-3.8c0.5-1.3,0.5-3.2,0.5-3.4l0,0v-21.8c0-3.8-0.5-5.2-1.3-7.1C99.5,118.3,90.7,117.5,88.7,117.3z M81.6,151.4
		c-3.3,0-4.5-2-4.5-3.8c0-2.5,2.7-3.3,4.7-4c1.3-0.4,2.7-0.8,4.1-1.2c1.3-0.5,2.6-0.8,3.9-1.3v6.6C88.8,148.8,85.8,151.4,81.6,151.4
		z"/>
	<path class="st0" d="M185.4,135.1l6-6.1c1.5-1.7,2.9-3.4,2.9-5.8c0-2.6-1.8-5.1-4.1-6c-0.2-0.1-1.2-0.4-2.1-0.4
		c-2.9,0-4.7,1.7-6.5,3.5l-10.9,12.1v-21.2c0-1.1,0.1-6-3.7-8.5c-1.8-1.2-3.4-1.3-4.1-1.3c-0.9,0-2.9,0.1-4.8,1.7
		c-2.1,1.7-2.8,4-2.9,6.5c-0.1,0.8-0.1,1.4-0.1,2.1v0.1c0,0.1,0,0.4,0,0.5c0,0.2,0,0.6,0,0.8c0,0.4,0,0.7,0,0.9c0,0.4,0,0.8,0,1.2
		c0,0.5,0,0.8,0,1.2c0,0.5,0,0.8,0,1.3c0,0.4,0,0.8,0,1.2c0,0.4,0,0.8,0,1.2c0,0.4,0,0.7,0,0.9c0,0.2,0,0.5,0,0.8c0,0.1,0,0.4,0,0.5
		s0.1,0,0.1,0c0.1,0,0.1-0.1,0.2-0.1c0.2-0.1,0.5-0.2,0.7-0.5c0.4-0.2,0.4-0.7,0.7-0.9c0.1-0.1,0.4,0,0.5-0.1
		c0.2-0.2,0.4-0.8,0.2-1.1c-0.1-0.1-0.2-0.1-0.4-0.2c0-0.1,0-0.2-0.1-0.4c0,0-0.2,0-0.2-0.1c-0.2-0.6-0.5-1.3-0.4-1.9
		c0-0.5,0.4-0.7,0.5-1.1c0-0.4,0-0.5,0.4-0.8c0.7-0.6,1.5-0.8,2.4-0.8c0.2,0,0.9,0.1,1.2,0.2c0.5,0.2,0.7,0.4,0.8,0.8
		c0.2,0.6,0,0.7,0,1.3c0,0.2,0.1,0.4,0.1,0.7c0,0.2,0,0.5,0,0.7c0,0.5,0.1,0.7,0,1.1c-0.1,0.5-0.4,0.8-0.4,1.3s-0.1,0.8-0.7,0.9
		c-0.1,0-0.2,0-0.4,0.1c-0.2,0.2,0.1,0.4,0.1,0.7c0,0.2-0.1,0.4,0,0.6c0,0.2,0.1,0.6,0.2,0.8c0.2,0.5,0.4,1.1,0.8,1.4
		c0.1,0.1,0.4,0.2,0.4,0.5c0,0.1,0.1,0.5,0.1,0.6c0,0.5,0,0.8,0.1,1.4c0.1,0.9,0.2,1.9,0.4,2.8c0.1,0.8,0.6,1.5,0.6,2.2
		s0.2,1.3,0.2,1.9c0,1.3-0.1,2.5,0,3.8c0,0,0,0,0.1,0.7c0,0.8,0.1,0.8,0.1,0.9c0,0,0,0.1,0,0.2c0,0.1-0.1,0-0.1,0.1c0,0,0,0,0,0.1
		c0,0.1,0,0.1-0.1,0.1s-0.4,0-0.2,0.1c0.2,1.3,1.1,4.6,1.1,5.2c0,0.5-0.2,0.8-0.2,1.2c-0.1,0.5-0.1,0.8-0.1,1.3s0,0.9-0.1,1.4
		c-0.1,0.9-0.2,1.9-0.5,2.8c-0.1,0.9-0.4,1.8-0.5,2.7c0,0.2-0.1,0.5-0.1,0.7c0,0.1,0,0.2,0,0.4c0,0.2-0.1,0.5-0.1,0.7
		c0,0.1,0,0.1,0,0.2c0,0.1,0,0.2,0.1,0.2c0.1,0.2,0.5,0.2,0.8,0.4s0.5,0,0.8,0.1c0.2,0,0.6,0,0.8,0.1c0.2,0.1,0.1,0.5,0.1,0.7
		c0,0.1-0.2,0.2-0.5,0.4c-0.1,0-0.2,0-0.4,0.1c-0.4,0-0.8,0.1-1.2,0.1c-0.1,0-1.4,0-1.9-0.1c-0.1,0-0.2,0-0.4-0.1l0,0
		c-0.1,0-0.2,0-0.2,0s0,0,0,0.1c0,0.1-0.1,0.1-0.2,0.1c-0.2,0-0.5,0-0.7,0h-0.1c0,0.1,0.2,0.5,0.4,0.6c0.2,0.2,0.5,0.4,0.7,0.6
		c0.1,0.1,0.4,0.5,0.4,0.7c0,0.1,0,0.4,0,0.5c0,0.1,0,0.2,0.1,0.2h0.1c0.1,0,0.1,0,0.2,0c0.5,0.1,0.9,0.1,1.5,0.2c0.1,0,0.4,0,0.5,0
		c3.4,0,6.4-2.1,7.3-5.5c0.4-1.2,0.4-2.4,0.4-2.8v-5l3.4-3.4l7.9,12.3c0.5,0.8,0.9,1.4,1.7,2c1.5,1.7,3.3,2.5,5.5,2.5
		c4.1,0,7.4-3.2,7.5-7.3c-0.1-2.9-1.9-5.2-2.4-6L185.4,135.1z"/>
	<path class="st0" d="M108.4,60c0.1,0.5,0.4,1.8,0.6,2.9c0,0.5,0.2,1.2,0.7,1.5c0,0,0.1,0,0.2,0.1c0.1,0,0.2,0.1,0.2,0.4
		s-0.1,0.6-0.4,0.8c-0.1,0.2-0.5,0.4-0.6,0.6s0,0.2,0.2,0.4c0.6,0.2,0.8,0.6,1.1,1.1c0.5,0.9,0.7,2.1,0.8,3.2
		c0.1,0.7,0.1,1.4,0.2,2.2c0,0.2,0,0.6-0.1,0.8c0,0.4,0,0.6,0.1,0.8c0.2,0.8,0,1.9,0,2.8c0,0.1,0,0.4,0,0.5l0,0c0,0.1,0,0.1,0,0.2
		s0,0.4,0,0.5c0,0.1,0,0.4,0.1,0.6s0.2,0.2,0.2,0.5c0.1,0.2,0.1,0.6,0,0.8c-0.1,0.1-0.1,0.2-0.4,0.4c-0.2,0.2-0.6,0.4-0.7,0.6
		s0,0.5,0,0.7c0,0.2,0,0.5,0,0.7c0,0.1-0.2,0.5-0.4,0.6c-0.1,0.1-0.1,0.4-0.4,0.5l0,0c0,0-0.1,0.1-0.2,0.1c0,0-0.1,0.1-0.2,0.1
		c0,0,0,0-0.1,0c-0.1,0,0,0-0.1,0v0.1c0,0.1,0,0.2,0,0.4c0,0.2,0,0.5-0.1,0.7c-0.1,0.6-0.2,1.1-0.5,1.7c-0.1,0.5-0.4,0.8-0.6,1.3
		c-0.1,0.2-0.2,0.4-0.2,0.6s0,0.5,0,0.7s-0.1,0.6-0.1,0.8c-0.1,0.2-0.2,0.5-0.4,0.7v0.1c0,0.4-0.2,3.9-0.4,5.3c0,0.2,0,0.6,0,0.8
		c4.5-0.1,15.3-1.5,19.8-12c1.9-4.4,2-9.1,2-10.6c-0.1-8.8-3.8-17.3-12-21c-4.2-1.9-8.5-2-10.1-2c-11-0.1-16.6,4.8-19.3,8.5
		c-4,5.4-4,11.7-4,13.8c0,2.8,0,9.8,5.3,16c2.6,3.1,7,6.6,15.6,7c-0.1-0.9-0.4-2-0.6-3.1c-0.6-2.1,0-4.8,0-4.8
		c0.1-1.3-0.4-3.5-0.6-4.6c0-0.1,0-0.1,0-0.2h-0.1c0,0-0.1,0-0.2,0c-0.1-0.1,0-0.2-0.1-0.4c0,0-0.1-0.1-0.2-0.1
		c-0.2-0.1-0.2-0.4-0.4-0.6c0-0.4,0.1-0.8,0-1.2s-0.7-0.4-0.9-0.6c-0.7-0.5,0-1.2,0-1.8c0-0.4-0.2-0.8-0.2-1.2s0-0.8,0-1.2
		c0-0.8,0.1-1.8,0.2-2.6v-0.2c-0.1-1.7,0-3.3,0.2-4.8c0.1-0.7,0.4-1.4,0.7-2.1c0.1-0.2,0.2-0.6,0.5-0.8c0.5-0.9-0.2-0.8-0.2-1.7
		c0-0.7,0.5-1.3,0.7-1.9c0.6-1.3,0.5-2.5,1.1-3.8c0.1-0.5,0.4-0.8,0.8-1.3c0.4-0.4,0.9-0.6,1.5-0.5C107.2,57.8,108,58.7,108.4,60z"
		/>
	<path class="st0" d="M138.7,117.2c-0.7,0-1.4,0-2.1,0.1c-0.7,0-1.3,0.2-1.9,0.4c-0.6,0.1-1.2,0.4-1.8,0.6c-0.6,0.1-1.1,0.5-1.5,0.7
		c-0.5,0.2-0.9,0.5-1.4,0.8c-0.4,0.2-0.8,0.5-1.2,0.8c-0.1,0.1-0.4,0.2-0.6,0.4c0,0-0.1,0.1-0.2,0.2c-0.1,0.1-0.1,0-0.1-0.1
		c0-0.1-0.1-0.2-0.1-0.4l0,0c-0.2-0.5-0.9-0.8-1.5-0.9c-0.6-0.2-1.1-0.4-1.7-0.5c-0.2,0-0.5-0.1-0.7-0.2c-0.2-0.1-0.5-0.4-0.6-0.7
		c0-0.1,0-0.2-0.1-0.4c-0.1-0.1-0.5,0-0.5-0.1c0-0.1,0-0.4,0-0.5c0.1-0.2,0.2-0.4,0.4-0.7c0-0.4,0-0.6,0.1-0.8
		c0.1-0.1,0.1-0.4,0.1-0.6c0-0.4,0-0.8-0.1-1.2c-0.2-0.5-0.4-1.1-0.7-1.4c-0.5-0.4-1.2-0.6-1.4-0.6c-0.1,0-0.4,0-0.6,0
		c-0.5,0-0.8,0.1-1.2,0.4c-0.1,0.1-0.4,0.1-0.5,0.4c0,0,0,0.1-0.1,0.2v0.1c0,0.2-0.2,0.5-0.4,0.7c0,0.1-0.1,0.2,0,0.4
		c0,0.1,0,0.2,0,0.5c0,0.2,0,0.6,0,0.8v0.1c0,0.1,0,0.2,0,0.4c0.1,0.2,0.2,0.5,0.4,0.7c0.1,0.2,0.2,0.6,0.5,0.8c0,0,0,0.1,0.1,0.1
		c0.1,0.1,0.1,0.1,0.2,0.2c0.1,0.1,0.1,0.4,0.2,0.5c0,0.1-0.1,0.1-0.1,0.2c0,0.1,0,0.1,0,0.1c0,0.1,0.1,0.2,0.1,0.4
		c-0.1,0.2-0.5,0.4-0.7,0.5c0,0-0.1,0-0.2,0c-0.1-0.5-0.4-0.9-0.6-1.3c-0.1-0.4-0.5-0.8-0.7-1.1c-0.2-0.4-0.7-0.4-1.1-0.4
		c-0.1,0-0.4-0.1-0.6-0.2c-0.8-0.1-1.3,0.8-1.7,1.4c-0.1,0.4-0.5,0.6-0.6,0.9c-0.1,0.4-0.2,0.6-0.2,0.9c0,0.4,0,0.5,0,0.8
		c0,0.4-0.2,0.8-0.2,1.2c0,0.2,0,0.5,0.1,0.7c0.2,0.4,0.4,0.8,0.2,1.2c-0.1,0.5-0.6,0.8-0.9,0.9c-0.1,0-0.5,0.2-0.7,0.1
		c-0.5-0.2-0.4-1.1-0.8-1.4c-0.1-0.1-0.5-0.1-0.7-0.2c-0.4,0-0.6-0.2-0.2-0.6c0,0,0.1-0.1,0.1-0.2c0,0,0-0.1,0.1-0.1h0.1
		c0.1,0,0.1-0.1,0.1-0.1c0.1-0.1,0.2-0.4,0.4-0.5v-0.2l-0.1-0.1c0-0.1,0-0.2,0.1-0.4c0.1-0.2,0.1-0.6,0-0.8c0-0.4-0.1-0.6-0.4-0.8
		c-0.1-0.1-0.2-0.2-0.5-0.2c-0.1,0-0.2,0-0.5,0c-0.1,0-0.1-0.1-0.2-0.1c-0.1-0.1-0.5-0.1-0.6-0.1c-0.4,0-0.7,0-0.9,0.2
		c-0.1,0.1-0.1,0.1-0.2,0.4c0,0.1-0.2,0.2-0.4,0.4c-0.1,0.1-0.1,0.2-0.2,0.4c-0.1,0.2-0.2,0.6-0.2,0.8c0,0,0,0,0,0.1
		c0,0.1,0,0.1,0,0.2s-0.1,0.1-0.1,0.2c0,0.2,0.2,0.4,0.2,0.6c0,0.1,0.1,0.4,0.2,0.5c0,0,0.1,0,0.2,0c0.2,0,0.2,0.5,0.4,0.6
		c0.1,0.4-0.2,0.5-0.5,0.6c-0.5,0.2-0.9,0.8-1.2,1.3c-0.1,0.4-0.6,1.5-0.6,1.7c0,0.1,0,0.4-0.1,0.5c0,0.1-0.1,0.2-0.1,0.4
		s0.4,0.9,0.6,1.2c0.1,0.2,0.4,0.4,0.6,0.5c0.1,0.1,0.2,0.1,0.4,0.2c0,0,0.1,0.1,0.2,0.1c0,0.1,0,0.2,0,0.4s0.1,0.1,0.1,0.2
		s0,0.2,0,0.4c0,0.2,0,0.5,0.1,0.7c0.1,0.4,0.5,0.6,0.8,0.8c0.2,0.1,0.2,0.5,0.4,0.8c0.1,0.2,0.4,0.5,0.6,0.6
		c0.6,0.4,0.4,0.7,0.1,1.2c-0.2,0.6-0.5,1.2-0.6,1.8c-0.1,0.2-0.1,0.6-0.1,0.8c0,0.1-0.1,0.6,0,0.7c0,0.1,0.1,0,0.2,0.2
		c0,0.1,0,0.4-0.1,0.5c-0.1,0.1-0.4,0.2-0.2,0.5c0,0.4,0.5,0.6,0.6,0.9c0,0.1,0,0.4,0,0.6c0,1.1,0.1,2.2,0.4,3.3
		c0.2,1.4,0.9,6,1.1,6.1v0.1c0,0,0.1,0,0.2,0c0.1,0,0,0,0.1,0s0,0.1,0,0.2c0,0.1,0,0.1,0,0.2s0,0.4,0,0.6c0,0.4,0,0.8,0,1.2
		c0,0.4,0,0.7,0,1.1c0,0.1,0,0.2,0,0.4l0,0c0,0,0,0-0.1,0c-0.1,0-0.1,0-0.1,0c-0.1,0-0.1,0.1-0.1,0.2c0,0.2,0,0.4,0,0.6
		c0,0.2,0,0.5,0,0.8c0,0.2,0,0.6,0,0.8s0,0.4,0,0.6c0.1,0.7,0.1,1.4,0,2.2c0,0.2,0,0.5,0,0.7c0,0.1,0,0.2,0,0.4c0,0.1,0,0.2-0.1,0.5
		c0,0.1-0.1,0.2-0.2,0.4c-0.1,0.2-0.2,0.5-0.4,0.7c-0.2,0.4-0.5,0.7-0.7,1.1c-0.1,0.1-0.1,0.4,0.1,0.5c0.1,0,0.4,0,0.5,0
		c0.2,0,1.2-0.4,1.4-0.5c0.4-0.1,0.6-0.2,0.8-0.6c0.1-0.1,0.2-0.4,0.2-0.5c0-0.1,0-0.1,0.1-0.2l0,0c0,0,0,0,0.1,0
		c0.1,0,0.2,0.1,0.4,0c0,0,0.1-0.1,0.1-0.2v-0.1c0-0.1,0-0.4,0-0.5c0-0.1,0-0.2,0-0.2c0-0.1,0-0.4,0-0.5v-0.2c0-0.1,0-0.4,0-0.6
		c0-0.2-0.1-0.6-0.1-0.8c0-0.7,0-1.5,0.1-2.2c0-0.5,0.1-0.8,0.2-1.4c0-0.1,0-0.2,0.1-0.4v-0.1h-0.2v-0.1V154c0-0.1,0-0.2,0-0.4
		c0-0.2,0.1-0.6,0.1-0.8c0-0.2,0-0.4,0-0.6s0-0.6,0-0.8c0-0.1,0-0.2,0-0.5c0-0.1,0-0.2,0-0.4c0.1,0,0.2,0,0.4,0c0.1,0,0.2,0,0.5,0
		h0.2l0,0v0.2c0,0.2,0,0.6,0,0.8s0,0.8,0,0.9h-0.1c0,0,0,2,0,2.6c0,0.2,0,0.5-0.1,0.7c0,0.2-0.1,0.6-0.2,0.8
		c-0.1,0.2-0.1,0.7-0.1,0.9c0,0.5,0,0.9,0,1.4c0,0.1,0,0.4,0,0.6s0.6,0.4,0.7,0.2l0.1-0.2c0,0,0,0.1,0.1,0.1c0,0.1,0,0.2,0.1,0.4
		c0,0.1,0,0.2,0,0.2c0,0.2,0.8,0.4,1.1,0.4c0.2,0,0.8,0.1,0.8,0.1s0.7,0.1,0.7-0.2c0-0.1-0.1-0.2-0.2-0.4c-0.1-0.1-0.6-0.6-0.6-0.7
		c-0.1-0.1-0.1-0.2-0.2-0.4c-0.1-0.1-0.1-0.5-0.2-0.7c0-0.2-0.1-0.4-0.1-0.6c0-0.1,0-0.2-0.1-0.4c0-0.1,0-0.4,0-0.5
		c0-0.1,0-0.4,0-0.5c0-0.4,0.1-0.7,0.2-1.1c0.1-0.5,0.2-0.9,0.5-1.5c0-0.2,0.1-0.5,0.2-0.8v-0.2h-0.2c0,0,0,0,0-0.1
		c0-0.1,0-0.2,0-0.4c0-0.2,0.1-0.6,0.1-0.8c0-0.1,0-0.2,0-0.4c0-0.2,0-0.5,0-0.6s0-0.2,0-0.4c0-0.1,0.1-0.1,0.2-0.1h0.2
		c0,0,0-0.1,0-0.2s0-0.4,0-0.6c0-0.4,0-0.7,0.1-1.1c0-0.1,0-0.8,0-0.8c0-0.1,0.1-0.1,0.1,0v0.1c0,0.1,0.1,0.4,0.1,0.6
		c0.1,0.7,0.2,1.3,0.5,2c0.1,0.8,0.4,1.5,0.5,2.2c0.1,0.8,0.4,1.5,0.6,2.4c0.2,0.7,0.4,1.4,0.7,2c0,0.1,0.1,0.4,0.2,0.5
		c0.1,0.1,0.1,0.4,0.2,0.6s0.1,0.4,0.2,0.5c0.1,0.1,0.1,0,0.2,0s0.1,0,0.1,0.2c0,0.1-0.1,0.2-0.2,0.4c-0.1,0.1-0.2,0.4-0.5,0.6
		c-0.2,0.2-0.6,0.5-0.9,0.6c-0.2,0.1-0.6,0.1-0.8,0.2c-0.2,0-0.5,0-0.7,0.1c-0.1,0-0.2,0.2-0.2,0.4c0,0,0,0.1,0,0.2c0,0,0,0,0,0.1
		c0,0,0,0.1,0,0.2c0,0.2,0.2,0.2,0.5,0.4c0.5,0.1,1.1,0,1.5,0c0.5,0,0.8-0.1,1.3-0.1c0.2,0,0.6-0.1,0.8-0.1c0.1,0,0.2,0,0.4,0
		c0,0,0.1,0,0.2,0c0,0,0,0.1,0.1,0.1c0,0,1.4,0,1.7,0c0.2,0,0.2-0.2,0.2-0.4s0-0.4,0-0.5c0-0.1,0-0.6,0.1-0.6c0.1,0,0.2,0.6,0.2,0.7
		c0,0.2,0,0.5,0,0.7c0,0.4-0.2,1.7,1.2,1.7c0.8,0,1.8,0,1.8-0.7c0-0.5-0.1-0.7-0.4-1.3c-0.1-0.4-0.4-0.7-0.5-1.1
		c-0.1-0.2-0.1-0.4-0.1-0.7c0-0.1,0-0.2,0-0.4c0,0,0-0.1,0-0.2c0,0,0.1,0,0.1-0.1c0-0.8,0-2.4-0.1-3.4c0-0.8-0.1-2.5-0.5-4.2
		c-0.4-2.4-0.5-2.4-0.5-2.7c0-1.2-0.4-2.2-0.4-3.5c0-0.5-0.1-0.9-0.1-1.5c0-0.2,0-0.4-0.1-0.6c0-0.1-0.1-0.4,0-0.5
		c0,0,0.1,0,0.2-0.1c0,0,0.1-0.1,0.2-0.1c0-0.1,0-0.1,0.1-0.2c0.1,0,0.2,0,0.5,0s0.2-0.1,0.4-0.2c0.1-0.1,0.2-0.4,0.2-0.5
		c0-0.2,0-0.4,0-0.6s0.1-0.4,0.1-0.6c0-0.1,0-0.4,0.1-0.5c0.1-0.1,0.2-0.1,0.5-0.2c0.1-0.1,0.1-0.2,0-0.5c-0.1-0.5-0.1-0.9,0-1.4
		c0,0,0,0,0-0.1c0-0.5,0.1-0.9,0.2-1.4c0.1-0.7,0.2-1.3,0.4-2c0-0.4,0.1-0.6,0.1-0.9c0-0.2,0.1-1.3,0.1-2.2c0-0.1,0-0.2,0.1-0.2
		c0.1,0,0.1-0.1,0.2-0.1c0.1,0,0.4-0.1,0.5-0.2c0.6-0.2,1.3-0.4,2-0.4c1.3,0,4.1,0.5,4.8,4c0.1,0.7,0.1,1.2,0.1,2.5v17.5
		c0.1,1.3,0.1,2.4,0.5,3.5c0.9,3.1,3.2,4.6,4.1,5.1c1.3,0.6,2.7,0.6,3.2,0.6c3.7,0,6.5-2.4,7.4-5.9c0.2-1.2,0.2-1.8,0.4-3.1v-23.4
		c-0.2-2.1-0.4-3.7-0.9-5.5C150,122.1,146.7,117.2,138.7,117.2z"/>
</g>
</svg>
