<svg version="1.1" xmlns="http://www.w3.org/2000/svg" viewBox="0 0 200 200">
<g>
	<path d="M81.3,138.7c-16.7,0-33.5,0-50.2,0c-1.6,0-1.6,0-1.6-1.6c-0.2-5.2,0.1-10.3,1.9-15.3c2.2-6,5.4-11.5,9.1-16.7
		c2-2.8,7.6-3,9.8-0.2c1.6,2.1,3.2,4.4,4.8,6.5c1.1,1.5,2.3,2.9,3.5,4.3c1.4,1.7,3.3,2,5.4,1.4c3.5-1.1,6-3.4,8-6.3
		c1.3-1.9,2.5-3.8,3.9-5.6c2-2.5,4.8-2.3,6.7,0.3c2.2,2.8,4.4,5.5,6.7,8.2c0.7,0.9,1.7,1.6,2.5,2.4c2.4,2.4,5.4,2.8,8.5,2.1
		c1.1-0.3,2.4-1.1,3.1-2c2.4-3,4.5-6.2,6.8-9.2c1.2-1.5,2.6-2.9,4-4.1c0.4-0.4,1.3-0.4,1.9-0.2c1.7,0.5,2.9,1.6,3.8,3.2
		c3.1,5.6,6.3,11,9.3,16.6c2.4,4.4,3.8,9.2,4,14.3c0,0.4,0.1,0.9,0,1.3c-0.2,0.4-0.6,0.7-1,0.9c-0.3,0.1-0.7,0-1,0
		C114.6,138.7,98,138.7,81.3,138.7z"/>
	<path d="M166.8,138.7c-0.4,0-0.8,0.1-1.2,0.1c-8.9,0-17.8,0-26.7,0c-1.1,0-1.5-0.2-1.4-1.4c0.2-4.3,0.3-8.6,0.5-12.8
		c0.4-6.2,3.3-11.1,8.1-14.9c1.6-1.3,3.2-2.6,5-3.7c2.7-1.7,4.7-1.2,6.7,1.2c2.6,3.1,5.2,6.2,6.6,10c0.9,2.5,1.6,5.2,1.9,7.8
		c0.5,4.4,0.5,8.9,0.7,13.3C167,138.3,166.9,138.4,166.8,138.7z"/>
	<path d="M184.9,138.7c-4.1,0-8.3,0-12.4,0c-1,0-1.4-0.2-1.3-1.3c0.2-3.4,0.2-6.8,0.5-10.1c0.1-1.3,0.7-2.7,1.4-3.9
		c2.5-4.1,5.1-8.2,7.7-12.2c1.5-2.3,4.6-3.2,7-2.4c0.8,0.3,1.7,0.8,2.3,1.5c1.8,1.9,3.4,4,5.1,6c2,2.4,2.9,5.2,3.1,8.3
		c0.2,4.2,0.4,8.5,0.7,12.7c0.1,1-0.2,1.5-1.3,1.4C193.3,138.7,189.1,138.7,184.9,138.7z"/>
	<path d="M13,138.7c-3.4,0-6.8,0-10.2,0c-1.5,0-1.7-0.3-1.6-1.8c0.2-3.6,1.2-6.9,3.3-9.7c2.2-2.9,4.7-5.6,7.2-8.3
		c1.1-1.2,3-1.1,4.3-0.1c5,3.6,7.6,8.6,8.6,14.5c0.3,1.5,0.1,3.1,0.1,4.6c0,0.8-0.5,0.8-1.1,0.8C20.1,138.7,16.5,138.7,13,138.7z"
		/>
</g>
</svg>
