<svg version="1.1" xmlns="http://www.w3.org/2000/svg" viewBox="0 0 200 200">
<g>
	<path d="M-125.3,76.2"/>
	<path d="M120.8,112.7c-2.9,0-6.6,0-10.3,0c0-0.9,0-1.6,0-2.6c4.3,0,8.5-0.3,11.6-0.3c5.5-3.4,7.9-4.9,12.2-7.9
		c1.6-1.1,3.6-3.8,5-6.5c2.3-4.4,3.1-8.8,4.1-13.7c0.5-2.2,1.3-5,2.1-8.6c0.4-1.7,0.7-2.4,1.2-4c-0.8,0-1.5,0-2.3,0
		c-0.9,2.7-1.8,4.7-2.4,7.3c-1.6,6.3-2.8,12.8-5.5,18.8c-1.3,2.9-4.9,5.9-9.9,8.7c-1.7,0.9-3.3,1.9-5.2,3c-3.1,0-6.7,0-10.2,0
		c-0.6-1.2-1.3-2.5-2.1-4.1c4.3-2.7,8.9-5.5,13.3-8.3c0-11.6,0-22.8,0-34.2c-0.8-0.1-1.5-0.2-2.5-0.3c0,10.9,0,21.6,0,32.3
		c-4.1,2.4-7.9,4.7-12.2,7.3c0.3-5.3-2.9-8.6-6.3-11.6c0-29.6,0-59.1,0-88.5c-0.3,0-0.6,0-0.9,0c-0.2,0-0.4,0-0.6,0
		c-0.3,0-0.6,0-0.9,0c0,29.4,0,58.9,0,88.5c-3.4,3-6.5,6.3-6.3,11.6c-4.3-2.6-8.1-4.9-12.2-7.3c0-10.7,0-21.4,0-32.3
		c-1,0.1-1.7,0.2-2.5,0.3c0,11.4,0,22.7,0,34.2c4.4,2.8,9,5.6,13.3,8.3c-0.8,1.6-1.5,2.9-2.1,4.1c-3.6,0-7.1,0-10.2,0
		c-1.9-1.1-3.5-2.1-5.2-3c-5-2.7-8.5-5.8-9.9-8.7c-2.7-6-3.9-12.5-5.5-18.8c-0.7-2.6-1.5-4.6-2.4-7.3c-0.8,0-1.5,0-2.3,0
		c0.5,1.6,0.8,2.3,1.2,4c0.7,3.6,1.6,6.5,2.1,8.6c1,4.8,1.8,9.3,4.1,13.7c1.4,2.7,3.3,5.4,5,6.5c4.3,3,6.8,4.6,12.2,7.9
		c3.1,0,7.2,0.3,11.6,0.3c0,0.9,0,1.6,0,2.6c-3.7,0-7.5,0-10.3,0c-6.6,4.5-11.8,8.8-17.1,12.4l-8.1,29c0.6,0.3,0.6,0.3,1.8,0.8
		c0.1-0.1,1.8-5.7,2-6.2c2.6-8.7,3.6-12.1,7.3-22.5c3.1-2.2,7.5-5.4,12.2-8.7c3.7,0,7.7,0,11.7,0c0.7,0.7,1.4,1.4,2.3,2.3
		c-6.4,4.5-12.7,8.9-19.7,13.9c0,15.8,0,32.3,0,48.8c1,0,2,0,3,0c0-16,0-32.1,0-47.3c6.8-4.7,12.9-9,19-13.2
		c0.3,0.2,0.6,0.5,0.8,0.7c-0.5,1.2-1,2.4-1.6,3.7c0.6,1.5,1.2,3.3,2.1,5.8c0.7,0.8,2,2.2,3,3.2c0.7,0,1.3,0,1.8,0
		c0.2,0,0.4,0,0.6,0c0.6,0,1.2,0,1.8,0c0.9-1,2.3-2.5,3-3.2c0.9-2.5,1.5-4.3,2.1-5.8c-0.6-1.3-1.1-2.5-1.6-3.7
		c0.3-0.2,0.6-0.5,0.8-0.7c6.1,4.2,12.2,8.5,19,13.2c0,15.3,0,31.3,0,47.3c1,0,2,0,3,0c0-16.5,0-33.1,0-48.8
		c-7-4.9-13.3-9.4-19.7-13.9c0.9-0.9,1.6-1.6,2.3-2.3c4,0,8.1,0,11.7,0c4.7,3.4,9.2,6.5,12.2,8.7c3.6,10.4,4.6,13.8,7.3,22.5
		c0.1,0.4,1.8,6.1,2,6.2c1.1-0.5,1.1-0.5,1.8-0.8l-8.1-29C132.6,121.5,127.4,117.2,120.8,112.7z"/>
</g>
</svg>
