<svg version="1.1" xmlns="http://www.w3.org/2000/svg" viewBox="0 0 200 200">

<path d="M190.9,33.3c0-2.3-0.7-2.3-2.5-1.6c-5.3,1.9-10.6,3.6-16,5.4l0,0l0,0c0-7.2,0-14.4,0-22.2
	c-3.6,2.4-6.6,4.5-9.7,6.5c-3.6,2.3-6.8,5.1-10.6,6.8c0-7.4,0-14.9,0-22.3c-0.3,0-0.4-0.1-0.7-0.1c-0.1,0.3-0.3,0.5-0.5,0.8
	c-12.1,13.7-24.3,27.4-36.3,41.1c-3.9,4.4-8,8.6-11.4,13.3c-0.3,0.3-0.5,0.5-0.8,0.8c-0.3-0.1-0.5-0.1-0.9-0.3l0,0
	c-0.4-0.4-0.7-0.7-1.1-1.1l0,0c-0.1-0.3-0.3-0.5-0.5-0.8C82.1,41.9,64.3,24.1,46.5,6.3C46.2,6,46,5.5,45.2,5.9
	c0.1,6.6,0.5,13.4,0.3,20.2c-5.6-2.9-10.6-6.5-16-9.7c-0.7-0.4-1.2-1.2-2.4-0.9c0,5.6,0,11.2,0,16.6c0,1.6,0.4,3.1-0.3,4.7l0,0
	c-5.1-1.6-10.1-3.3-15.2-4.9c-2.8-0.9-2.8-0.9-2.8,2c0,42.1,0,84.3,0,126.4c0,2.3,0.7,3.2,2.8,4c18.1,6,36.2,12.1,54.2,18.1
	c9.8,3.3,19.5,6.5,29.4,9.7c2,0.9,4,2,6.2,1.9l0,0l0,0l0,0c2,0.9,3.9,0.1,5.6-0.5c5.1-2.3,10.1-4.1,15.3-6c21.9-8,44-15.7,66.1-23.1
	c1.7-0.5,2.7-1.3,2.7-3.5C190.9,118.2,190.9,75.7,190.9,33.3z M27.1,37C27.1,37.1,27.1,37.1,27.1,37c-0.1,0-0.1-0.1-0.3-0.3
	C27,36.9,27,37,27.1,37L27.1,37z M45.4,43.2C45.4,43.2,45.4,43.1,45.4,43.2c0,0,0-0.1,0.1-0.1C45.4,43.1,45.4,43.1,45.4,43.2z
	 M141.7,122.3c-1.3,2.3-1.5,4.9-2.4,7.3c-1.5,3.3-3.5,6.2-6.9,7.8c-0.7,0.3-0.9,0.8-1.3,1.2c-1.3,1.7-3.2,2.3-5.2,1.6
	s-2.5-2.4-2.5-4.3c0-4.9-0.5-23.9-0.5-28.6c0-1.5,0-2.9,1.1-4.3c0.3-0.4,0.4-0.8,0.4-1.3c-0.8-12.5-7.4-22.5-19.7-25.1
	c-14.4-2.9-26.9,5.8-29,20.3c-0.3,1.7-0.5,3.3,0.8,4.8c0.5,0.8,0.5,1.7,0.5,2.5c-0.1,9.6-0.4,19.3-0.5,28.8c0,0.8-0.1,1.6-0.3,2.4
	c-0.3,1.6-0.9,2.8-2.7,3.3c-1.7,0.4-3.5,0.3-4.7-1.3c-0.7-0.9-1.5-1.5-2.4-2c-4-2.5-5.8-6.4-7-10.6c-0.4-1.3-0.7-2.7-1.3-4
	c-0.7-1.2-0.7-2.8,0.1-4c0.7-0.9,0.8-1.9,0.9-2.8c1.3-5.3,3.5-9.8,8.9-12.1c1.5-0.7,2.3-2.4,4.3-2.5c0.7,0,0.7-1.6,0.8-2.5
	c0.3-2.4,0.8-4.7,1.7-6.8c4-10.2,13.4-16.6,24.2-16.5c11.7,0.1,21.3,6.6,25.3,17.1c1.1,2.8,1.9,5.6,2,8.6c0.1,1.5,0.7,2.1,2.1,2.9
	c5.4,2.9,10.6,6.4,11.7,13.2c0.3,1.2,0.5,2.4,1.2,3.5C142.1,120.1,142.2,121.5,141.7,122.3z"/>
</svg>
