<svg version="1.1" xmlns="http://www.w3.org/2000/svg" viewBox="0 0 200 200">
<g>
	<path d="M191.3,80.8L191.3,80.8c1.4-2.5,2.2-5.4,2.2-8.3c0-2.2-0.4-4.3-1.3-6.4c-0.8-2.1-2.1-3.9-3.6-5.4c-1.5-1.5-3.3-2.8-5.4-3.6
		c-2.1-0.8-4.2-1.3-6.4-1.3c-3.3,0-6.5,1-9.2,2.8c-2.1,1.4-3.9,3.3-5.1,5.6l0,0L138.5,106l-24.1-41.9c-2.2-3.9-5.8-6.7-10-7.8
		c-2.1-0.6-4.3-0.7-6.5-0.4s-4.3,1-6.1,2.1c-2.5,1.5-4.6,3.6-6.1,6.1l0,0L61.5,106L37.6,64.1c-2.2-3.8-5.8-6.5-10.2-7.7
		c-4.3-1.1-8.8-0.6-12.7,1.7C11,60.4,8.1,64,7,68.3C5.9,72.6,6.4,77.1,8.7,81l38.4,66.9c1.4,2.5,3.6,4.6,6.1,6.1
		c2.5,1.5,5.4,2.2,8.3,2.2l0,0c2.9,0,5.8-0.8,8.3-2.2s4.6-3.6,6.1-6.1l0,0l0,0l24.1-41.9l24.1,41.9c1.4,2.5,3.6,4.6,6.1,6.1
		s5.4,2.2,8.3,2.2c2.9,0,5.8-0.8,8.3-2.2s4.6-3.6,6.1-6.1l0,0l0,0L191.3,80.8z"/>
</g>
</svg>
