<svg version="1.1" xmlns="http://www.w3.org/2000/svg" viewBox="0 0 200 200">
<g>
	<path fill="none" d="M107.7,113.8l18.3,12.1c-17.5-28.7-23.1-34.7-51.8-51.7C83.4,88.2,92.1,104.7,107.7,113.8z M100,96.3
		c3.9-0.1,3.9,6,0,6C96.1,102.3,96.1,96.2,100,96.3z"/>
	<path d="M182.9,85.7c-3.9-2-6.1-4.8-7.4-9.1c-9.1-30.8-37.7-54-70.1-55.4c0,6.7,0,12.9,0,19.3c28.5,3,51,26.1,54.1,54.3
		c12.8,0,25.1,0,37.4,0c0.1-0.3,0.2-0.6,0.3-0.9C192.3,91.1,187.7,88.2,182.9,85.7z"/>
	<path d="M58.3,57.7c10.1-9.9,22.5-15.1,36.4-17.4l0-38.3c0,0,0,0-0.1,0c-4,6.9-8,13.7-12.1,20.8c-33.4,7.6-59.9,37-61.3,71.9h19.3
		C42.7,79.9,48.1,67.7,58.3,57.7z"/>
	<path d="M159.5,106c-5.6,30.4-23.5,48.1-53.5,53.5c-1.1,13,0,25.5-0.6,38.6c0,0,0,0,0,0c6.2-10.1,9.6-20.7,22.1-24.2
		c29.7-11,49.4-36,50.8-67.9H159.5z"/>
	<path d="M40.5,105.8c-11.9,0-23.8,0-37.5,0c7.6,4.5,13.8,8.1,19.7,11.5C34.2,161.6,72.3,179,94.8,178c0-6.1,0-12.3,0-18.3
		C58.7,149.2,49.6,140.2,40.5,105.8z"/>
	<path d="M128.9,130.3l1.3-1.7l-14-22.1c9.9-2.1,19.8-4.2,29.7-6.2c0-0.5,0-0.9-0.1-1.4c-10-1.7-20-3.4-31.1-5.2
		c5.1-7.9,9.5-14.7,13.9-21.5c-0.3-0.2-0.6-0.5-0.9-0.7c-6.9,4.5-13.8,9.1-21.4,14.1c-2.1-12-3.9-22.6-5.8-33.2c-0.4,0-0.9,0-1.3,0
		c-1.7,10.7-3.4,21.3-5.1,32L71,69.5l-1.3,1.7L84.3,94c-10.9,1.8-21.7,3.7-32.6,5.5c0.1,0.3,0.1,0.6,0.2,1
		c10.8,1.9,21.7,3.8,33.7,5.8c-5.2,7.9-9.7,14.6-14.1,21.4c0.3,0.3,0.6,0.6,0.9,0.9c6.8-4.6,13.6-9.1,21.2-14.2
		c2.1,11.9,4,22.5,5.8,33c4.6-10,4.7-20.9,7.4-31.4L128.9,130.3z M93.3,86.4c13.7,7.7,24,26.3,32.7,39.4
		c-28.6-17.7-34.6-23.3-51.8-51.7L93.3,86.4z"/>
	<path d="M100,102.3c3.9,0.1,3.9-6,0-6C96.1,96.2,96.1,102.3,100,102.3z"/>
</g>
</svg>
