<svg version="1.1" xmlns="http://www.w3.org/2000/svg" viewBox="0 0 200 200">
<path d="M162.8,133.5c-7.7,0-15-2.6-21-7.4c-5.6,4.5-12.5,7.1-19.9,7.4c-8.1,0.3-15.9-2.3-22.1-7.4
	c-5.6,4.5-12.5,7.1-19.9,7.4c-8.1,0.3-15.9-2.3-22.1-7.4c-5.6,4.5-12.5,7.1-19.9,7.4c-8.9,0.3-17.5-2.9-24-9
	C7.4,118.3,3.6,110,3.3,101.1c-0.6-18.5,13.9-34,32.4-34.6h0.1h2.1c7.5,0.2,14.4,3,19.9,7.4c5.5-4.4,12.4-7.2,19.9-7.4h0.1h2.1
	c7.5,0.2,14.4,3,19.9,7.4c5.5-4.4,12.4-7.2,19.9-7.4h0.1h2.1c7.5,0.2,14.4,3,19.9,7.4c5.5-4.4,12.4-7.2,19.9-7.4h0.1h2.1
	c17.6,0.6,31.8,14.8,32.4,32.4c0.3,8.9-2.9,17.5-9,24s-14.4,10.3-23.3,10.6C163.5,133.5,163.1,133.5,162.8,133.5z M146.8,121.1
	c4.8,3.7,10.8,5.6,16.9,5.4c7.1-0.2,13.6-3.2,18.5-8.4c4.8-5.2,7.4-11.9,7.1-19c-0.5-13.9-11.7-25.1-25.5-25.6h-1.9
	c-5.7,0.2-10.9,2.2-15.1,5.4c4.5,5.5,7.2,12.4,7.5,20C154.5,107,151.9,114.8,146.8,121.1z M104.8,121.1c4.8,3.7,10.8,5.6,16.9,5.4
	c5.6-0.2,10.8-2.1,15.1-5.4c-4.6-5.6-7.2-12.6-7.5-20c-0.3-8.4,2.6-16.2,7.5-22.2c-4.2-3.2-9.4-5.2-15.1-5.4h-1.9
	c-5.7,0.2-10.9,2.2-15.1,5.4c4.5,5.5,7.2,12.4,7.5,20C112.5,107,109.9,114.8,104.8,121.1z M62.8,121.1c4.8,3.7,10.8,5.6,16.9,5.4
	c5.6-0.2,10.8-2.1,15.1-5.4c-4.6-5.6-7.2-12.6-7.5-20c-0.3-8.4,2.6-16.2,7.5-22.2c-4.2-3.2-9.4-5.2-15.1-5.4h-1.9
	c-5.7,0.2-10.9,2.2-15.1,5.4c4.5,5.5,7.2,12.4,7.5,20C70.5,107,67.9,114.8,62.8,121.1z M35.8,73.5c-14.5,0.5-26,12.8-25.5,27.4
	c0.2,7.1,3.2,13.6,8.4,18.5c5.2,4.8,11.9,7.4,19,7.1c5.6-0.2,10.8-2.1,15.1-5.4c-4.6-5.6-7.2-12.6-7.5-20
	c-0.3-8.4,2.6-16.2,7.5-22.2c-4.2-3.2-9.4-5.2-15.1-5.4H35.8z M99.8,83.8c-3.6,4.7-5.7,10.6-5.5,17c0.2,5.6,2.1,10.9,5.5,15.3
	c3.8-4.9,5.7-10.8,5.5-17.1C105.1,93.4,103.1,88.1,99.8,83.8z M141.8,83.8c-3.6,4.7-5.7,10.6-5.5,17c0.2,5.6,2.1,10.9,5.5,15.3
	c3.8-4.9,5.7-10.8,5.5-17.1C147.1,93.4,145.1,88.1,141.8,83.8z M57.8,83.8c-3.6,4.7-5.7,10.6-5.5,17c0.2,5.6,2.1,10.9,5.5,15.3
	c3.8-4.9,5.7-10.8,5.5-17.1C63.1,93.4,61.1,88.1,57.8,83.8z"/>
</svg>
