<svg version="1.1" xmlns="http://www.w3.org/2000/svg" viewBox="0 0 200 200">
<path d="M3.7,156.8L3.7,156.8c7,1.3,17-3.8,22.2,0.1c0.3-1.9,0.8-2.3,2.4-1.2c1.5-1.9,0.8-3.5-1.7-3.4c5.1-3.2,9.5-7.2,13.1-12.1
	c1.8-2.6,11.8,0.4,10.7-3.9c-2.2-1.2-5.2,0-7.2-1.2c0.9-1,2.1-0.3,3-1.3c1.1-0.3,2.3,0.4,3.5-0.3c3.5-1.8-1-4.1-3.2-3.5
	c2.1-4.6,4.1-9.1,6-13.5c4.1,10.6,9.5,21.2,17.7,29.2c2.7,2.6-3,5.1-5,3.3c-4.4-0.6-3.8,1.4-0.8,3.4c1.3,1.8,3.9,0.5,4.9,2.8
	c3.8,3.7,3.8-3.6,5.6-5.3c13.8,8.9,33.1,9.3,46.9,0.2c1.5,2,1.9,8.9,5.6,5.2c0.9-2.1,3.3-1,4.7-2.4c0.7-1,2.8-1.5,2.5-3
	c-2.2-2.6-7.5,2.4-8.9-2.9c8.1-7.8,13.7-17.5,18-27.8c3.7,10,8.5,8.7-1.2,15.7c-0.7,0.5-0.7,0.8-0.4,1.6c-0.8,0.7,0,0.9,0.4,1.3
	c7.2,3.6,10.3,14.1,19.2,14.3c5.5-1.2,5.7-0.8,10.5,1.8c7.5,3.5,16,2.8,24.1,2.7v-19v19c0-14.2,0-88.7,0-101.1
	c-24.6-3.8-30.9,12.7-36.4,8.7c-2.5,2-2.8,5.7-4.2,8.4c-0.5,1.7-2.5,1.5-3.9,1.8c-5.7,0.6-11.7,1.6-16.7,4.4c-2.1-3-4.2-5.9-6.2-8.8
	c5.8-3.5,12.7-5.3,18.2-9.1c-0.3-0.2-0.6-0.4-0.9-0.6c1.2-0.3,1.5-1.3,1.9-2.3c0.1-0.1-0.1-0.6-0.2-0.6c-2.4-1-4.5-0.6-6.9,0.5
	c-5.4,4.9-10.7,4.2-17,7.3C108.4,51,87,53.4,71,64.3c-3.4-1.9-7.4-1.9-11-3.3c-1.5-0.4-2-2.4-3.3-2.9c-1.9-0.5-5-2.8-6.5-0.9
	c-1-0.4-1.7,0.2-1,1.2c-0.2,1.2,1.1,1.3,1.8,1.9c-0.5,0-0.7,0.2-1.2,0.3c1.8,2.1,5.2,3.1,7.9,3.8c3.2,1.6,6.2,3.5,9.4,5
	c-3.8,4.3-6.8,9.1-9.4,14.2c-22-10.5-26.3-30.9-53.9-28.4l0,0 M196.3,56.2v0.7c-0.8-0.3-1.7-0.5-2.4-1
	C194.7,56.1,195.5,56.1,196.3,56.2z M166.7,68.9c-0.1,0-0.2-0.1-0.2-0.1c7.5-7.6,18.8-15.8,29.9-11.2v14.7c-5.2,2.1-10,5.8-15.9,4.4
	c0-0.1-0.1-0.2-0.1-0.3c4.7-0.6,14.2-9.5,3.8-8.3c-3.2,0.9-5.3,3.9-8,5.7c-2.5,2-8.2,2.6-9.9-0.2C165.7,72.1,166.9,70.5,166.7,68.9z
	 M145.3,94.2c-0.5,1.5-1,2.8-1.6,4.3c-0.8-2-1.5-3.9-2.2-5.8C143.2,92.4,144,93.7,145.3,94.2z M93.6,57.2c-1,0.5-2.1,0.7-2,2
	c-1.4,0.2-1.4,0.2-1.6,1.5c-0.7,1.3-1.9,2.6-0.5,4c1,0.9-0.4,2.3,1,3.2c0.2,1.6,1.5,2.2,2.6,3.2c0,0.1,0,0.2-0.1,0.2
	c-5.5-2.3-11.5-1.6-17-4C77.6,64,90.5,56.5,93.6,57.2z M56.4,106.5c4.5,1,8.7,2.6,12.8,4.5c13.6,2.4,0.3-7.4-3.5-10.5
	c0,0,0.1-0.1,0.1-0.1c2.9,1.2,5.7,2.6,8.5,3.9c1,0.6,1.4-0.8,2.4-0.6c5.5-0.8-13.1-14-14.5-16.4c2.5-4.1,6.7-14.1,10.7-15.7
	c12.1,4,15.3,5.3,17.4,18.2c2.3,8.7-3.5,16.9-6.4,24.7c-2,9.8-6.7,18.2-10.7,27.3c-8.6-10.4-13.8-22.4-17.4-35.3
	C56.1,106.5,56.3,106.5,56.4,106.5z M5.7,56.2c8.4-0.3,16.1,4.3,22.2,9.7c0,0.1-0.1,0.1-0.1,0.2c-7.8-3.5-15.5-7-24-8.6v-1
	C4.3,56.4,5,56.3,5.7,56.2z M3.7,85.8c2.5,1.1,4.7,1.8,7.1,3.3c-2.5,0.6-4.7,1.1-7.1,0.6V85.8z M15,154.2c-3.6,1.1-7.5,2.3-11.3,1.6
	v-3.9c2.2,1,11.3-2,10.4-0.2c-0.2,0.9,0.6,1.8,1.4,2.2C15.3,154,15.1,154.1,15,154.2z M28.6,145.2c-10.3,10.9-10.2,1,0.5-0.5
	C28.9,144.9,28.8,145.1,28.6,145.2z M49.1,106c-2.1,8-5,15.9-8.9,23.2c-0.7,0.9-2.2-0.7-3.2-0.4c-2.9,0.1-6.2-0.5-8.5,1.4
	c-2.9,0.7-5.2,2.9-8.4,3.3c-5.4-0.5-11-0.5-16.5-0.1v-15c3.8-4.5,16.9-4.9,13.8-8.3c-1.7-0.8-3.3-3.8-5.2-3.1
	c-2.8,0.5-5.8-0.1-8.6-0.3V92.1c5.2,3.7,11.1,0.9,16.5,1.1c9.2,4.1,18.1,9,28,11.4C49.1,104.7,49.4,105.1,49.1,106z M92.8,155.7
	c-51.9-7-33.2-86.2-81-99.5c0-0.1,0-0.1,0-0.2c52.1,6.8,33.4,86.1,81,99.5C92.9,155.6,92.9,155.7,92.8,155.7z M118.3,147.6
	c-11.6,10.8-29.2,10.2-40.4-0.9c6.8-7.9,7.8-18.4,14.3-26.3c2-1.6,4.1-8.8,6-8.4c1.3-0.3,1.6,0.6,2.1,1.5c4,7.5,9.8,13.9,12,22.3
	C112.3,139,120,146.2,118.3,147.6z M107.9,66c-0.2-1.2,1.8-1.9,0.1-2.9c-0.3-0.2-0.5-0.4-0.3-0.8c0.6-0.9-0.6-1.1-0.6-1.9
	c0.5-1.9-1.9-0.8-1.8-2.4c5.6,2,10.2,5.3,14.3,9.5c-4.4,2.6-9.8,1.2-14.3,3.4c0.9-0.9,1.8-1.7,2-3.1C107.6,67.3,108.3,66.8,107.9,66
	z M140.4,110.2c-3.6,11.5-8.7,22.9-16.8,32c-4-9.5-9.2-18.2-11-28.5c-3.3-6.5-6.4-12.9-6.8-20.3c2.1-9.8,1.5-15.7,12.1-19.5
	c1.8-0.5,4-2.1,5.7-1.6c2.2,3.3,4.6,6.4,6.6,10c-4.1,2.8-4.1,3.3,0.5,5.1c0,0.1,0,0.2,0,0.3c-9.7,1.8,2.3,3,4.4,5.1
	C137.1,98.4,139.6,104.2,140.4,110.2z M152.8,144.6c0-0.1,0.1-0.2,0.1-0.3c2.2,1.2,4.4,2.4,6.5,3.7c0,0.1-0.1,0.2-0.1,0.2
	C156.8,147.8,154.8,146.2,152.8,144.6z M156.6,148.9c3.1,0.5,5.7,0.4,8.7,1.7C161.8,151.8,158.4,151,156.6,148.9z M183.3,156.1
	c-52.1-7.1-33.3-85.8-81.1-99.8c52.1,6.9,33.3,86.3,81.1,99.6C183.3,155.9,183.3,156,183.3,156.1z M169.7,148.2
	c2.6-0.3,4.9-1.1,7.4-0.6C174.6,147.5,171.9,149.8,169.7,148.2z M188.2,156c-4.4-0.3-8.6-1.8-12.5-3.7c0-0.1,0-0.1,0.1-0.2
	c2.9-0.6,5.8-0.8,8.8-0.3c0-0.2,0-0.3,0.1-0.5c-4-1.9-8.7,0.5-12.7-1.7c2.7-1,5.8-1.7,8-0.6c0.1-0.2,0.2-0.4,0.3-0.6
	c-0.7-0.3-1.3-0.5-2-0.8c0-0.2,0-0.3,0-0.5c-3.3-1.9-7.8,1.9-10.5-0.6c-3.7-2.2-2.2-6.4-4.4-9.5c4,1.4,7.5,3.7,11.9,3.9
	c0.7-1.7-5.1-0.1-4.1-3.1c0.4-2-3.9-2-3.2-4.6c-0.2-2.4,4.2-0.4,4.1-2.4c-4.3-0.2-7.7,1.5-11.3,3.6c-0.6-7.6,3.3-14.2,10-17.8
	c-7.2-2-12.6,5.1-17.8,9.2c-2.8-7.1-8.1-14.6-4.3-22.2c6.9,4.3,2-1.9,3.6-6c3.3,1.1,5.5,3.2,3.6-1.9c2.4,0.3,5-0.8,6.8,0.9
	c2.1,3.1,9.7,13.7,9.3,3.9c0.6-0.1,2.2,0.3,1.9-0.7c-0.6-2.5-1.9-4.3-4.4-5.4c12.8-4.9,9.9,0.8,20.3,3.6c9.4,0.8-2.3-7-5.2-8
	c4.5-2.3,7.9,1,11.7,3v7.3c-2-0.6-1.1,3.5-0.2,4.4c-1.5,1.9-3.7,5.5-6.3,5.1c-1-0.6-1.9-1.6-3-1.9c-0.6,1.3,0.5,2.9-0.1,4.1
	c-4.2,3.4-8.8-4.2-11-7.1c-1.5,5.1,5,9,5.6,13.5c-0.6,1.4-0.2,6.1,2,5.2c4.3,1.2,8.6-1,13-0.8V155C193.7,155.8,191,156.2,188.2,156z
	"/>
</svg>
