<svg version="1.1" xmlns="http://www.w3.org/2000/svg" viewBox="0 0 70 70">
<g>
	<path d="M34.7,26.4c-0.4,0.1-0.8,0.2-1.2,0.3c-5.1,1.5-10.2,3.3-15,5.5c-3.3,1.5-5.8,3.8-8,6.6c-0.9,1.1-1.7,2.3-2.2,3.6
		C8,43,7.9,43.6,7.9,44.1c0,0.9,0.4,1.4,1.2,1.7c1,0.3,2,0.4,3.1,0.4c3.1,0,6.1-0.5,9.1-1.2c1.7-0.4,3.5-0.8,5.2-1.2
		c0.2-0.1,0.4,0,0.5,0.2c0.1,0.1,0.1,0.3,0,0.4c-0.1,0.1-0.2,0.2-0.3,0.2c-4,0.9-7.9,2-11.9,2.2c-1.7,0.1-3.5,0.2-5.2-0.2
		c-0.5-0.1-0.9-0.3-1.3-0.5c-0.7-0.4-1.1-1-1.1-1.9c-0.1-1,0.3-1.9,0.7-2.8c1-2,2.3-3.8,3.9-5.4c1-1,1.9-2,3.1-2.8
		c1-0.7,2-1.3,3.1-1.8c3.6-1.8,7.4-3.2,11.2-4.5c2.1-0.7,4.1-1.2,6.2-1.8c0.1,0,0.2-0.1,0.3-0.2c0.6-0.7,1.1-1.4,1.8-2.1
		c0.7-0.8,2-0.9,2.8-0.1c2.1,1.9,4.3,3.7,6.4,5.6c0.9,0.8,1,2,0.2,3c-0.5,0.6-1,1.2-1.6,1.7c-0.1,0.1-0.2,0.3-0.2,0.4
		c-0.5,6.9-2.2,13.6-4.5,20.2c-1,2.7-2.6,5-4.5,7.1c-1.1,1.2-2.2,2.3-3.6,3.1c-0.5,0.3-1.1,0.6-1.7,0.7c-1.3,0.4-2.3-0.1-3-1.3
		c-0.6-1.1-0.8-2.2-1-3.4c-0.4-2.6-0.4-5.2-0.3-7.8c0.2-3.5,0.7-7,1.5-10.4c0.3-1.4,0.6-2.8,0.8-4.1c0.2-1.1,0.6-2.1,1.1-3
		c1-1.7,2.1-3.4,3.2-5c0.3-0.4,0.5-0.8,0.6-1.2C34,27.7,34.3,27.1,34.7,26.4z M32.9,31.4c0,0.1-0.1,0.1-0.1,0.2
		c-0.7,1.1-1.3,2.2-2,3.3c-0.5,0.9-1,1.8-1.1,2.9c-0.1,0.5-0.2,1-0.3,1.5c-0.5,2.8-1.2,5.5-1.5,8.3c-0.2,1.7-0.5,3.3-0.5,5
		c-0.1,2.5-0.1,5.1,0.3,7.6c0.1,0.9,0.3,1.8,0.7,2.7c0.4,1,1.2,1.3,2.2,1c0.1,0,0.1,0,0.2-0.1c1-0.3,1.8-0.9,2.6-1.5
		c1.4-1.1,2.5-2.4,3.6-3.8c0.9-1.2,1.7-2.3,2.3-3.7c0.9-2.1,1.7-4.3,2.3-6.5c1.1-3.9,2.1-7.9,2.6-12c0.1-0.7,0.1-1.5,0.2-2.2
		c-0.9,0.8-1.8,1.4-2.8,1.9c-0.1,0-0.1,0.1-0.2,0.1c-1.3,1.3-2.6,2.6-3.9,3.9c-1.1,1.1-2.3,1.9-3.8,2.3c-1.4,0.4-2.7,0.8-4,1.3
		c-0.2,0.1-0.4,0-0.5-0.2c-0.1-0.2,0-0.4,0.2-0.5c0.2-0.1,0.4-0.2,0.5-0.2c1.3-0.4,2.5-0.8,3.8-1.2c0.7-0.2,1.4-0.4,1.9-0.9
		c1.2-1.2,2.5-2.3,3.7-3.5c0.1-0.1,0.1-0.2,0.2-0.3c-0.4,0.1-0.8,0.2-1.2,0.3c-1.2,0.3-2.3,0.5-3.5,0.8c-0.3,0.1-0.7,0.1-1,0.2
		c-0.5,0-0.9-0.2-1.2-0.7c-0.4-0.6-0.3-1.2-0.1-1.9C32.8,34.2,32.8,32.8,32.9,31.4z"/>
	<path d="M31.3,30.5c-0.9,1.3-1.8,2.6-2.5,4c-0.6,1.1-0.9,2.2-1.1,3.4c-0.3,1.5-0.6,2.9-0.8,4.4c0,0.1,0,0.2-0.2,0.3
		c-1.4,0.4-2.7,0.7-4.1,1.1c0-0.1,0-0.1,0-0.1c0.6-2.4,1.3-4.7,2.4-6.9c0.5-1,1.3-1.9,2.1-2.7c1.3-1.2,2.7-2.3,4.1-3.4
		C31.2,30.6,31.3,30.6,31.3,30.5z"/>
	<path d="M48.4,28.3c-0.6,0.1-1.1-0.1-1.6-0.4c-0.8-0.7-1.6-1.3-2.3-2c-1.3-1.2-2.6-2.3-4-3.5C40.2,22,40,21.5,40,20.9
		c0.5,0.3,0.9,0.6,1.4,0.8c0.6,0.3,1.1,0.6,1.7,0.8c1,0.3,1.8,0,2.2-0.9c0.2-0.5,0.4-1,0.6-1.5c0-0.1,0-0.2,0-0.3
		c-0.1-0.5,0.2-0.7,0.5-1c0.2-0.1,0.4-0.2,0.7-0.4c0-0.6,0-1.3,0-2c0,0,0,0,0,0c0.1,0.6,0.1,1.3,0.2,1.9c0.6,0,1.2,0,1.9,0
		c0,0,0,0,0,0.1c-0.6,0.1-1.2,0.3-1.8,0.4c0,0.6-0.1,1.1-0.1,1.6c0,0.2,0.4,0.5,0.6,0.5c0.5-0.1,1-0.2,1.6-0.3
		c0-0.6,0.1-1.2,0.1-1.8c0.2,0.6,0.3,1.2,0.3,1.8c0.6,0,1.1,0,1.7,0c0,0,0,0,0,0c-0.1,0-0.1,0-0.2,0c-0.4,0-0.7,0.1-1.1,0.1
		c-0.3,0-0.5,0.1-0.6,0.5c0,0.2-0.2,0.5-0.3,0.7c-0.2,0.3-0.4,0.4-0.7,0.4c-0.9,0.1-1.6,0.5-2.1,1.2c-0.4,0.5-0.4,1-0.2,1.6
		c0.3,0.9,0.9,1.6,1.5,2.3C48,27.8,48.2,28,48.4,28.3z M49.2,20.9c-0.5,0.1-0.9,0.2-1.3,0.3c0.5,0.8,0.8,0.5,1.2,0
		C49.2,21.1,49.2,21,49.2,20.9z M46.8,20.2c0-0.4,0.1-0.8,0.1-1.2c-0.2,0.1-0.3,0.2-0.4,0.3c-0.3,0.4-0.3,0.5,0.1,0.8
		C46.7,20.1,46.7,20.1,46.8,20.2z"/>
	<path d="M26.5,45.3c-0.2,1.7-0.4,3.4-0.6,5.1c0,0.1-0.1,0.2-0.1,0.2c-0.9,0.4-1.8,0.8-2.8,0.7c-0.7,0-1.1-0.4-1.3-1
		c-0.2-0.6-0.1-1.3-0.1-1.9c0.1-0.6,0.2-1.2,0.3-1.8c0-0.1,0.1-0.2,0.2-0.2C23.6,46.1,25,45.7,26.5,45.3z"/>
	<path d="M35.9,23.3c-0.1-0.5-0.2-1-0.2-1.5c-0.1-0.7-0.1-1.5-0.2-2.2c0-0.7,0.2-1.3,0.7-1.8c1.2-1.1,2.4-2.2,3.5-3.4
		c0.5-0.5,0.9-1,1.3-1.6c1-1.5,2.1-2.9,3.1-4.4c0.1-0.2,0.4-0.2,0.6-0.1c0.2,0.1,0.3,0.3,0.1,0.6c-0.4,0.5-0.7,1.1-1.1,1.6
		c-0.9,1.3-1.8,2.6-2.8,3.9c-0.4,0.5-0.9,1-1.3,1.5c-0.9,0.9-1.8,1.9-2.8,2.8c-0.1,0.1-0.1,0.2-0.1,0.3c0.1,0.9,0.3,1.8,0.4,2.7
		c0,0.1,0,0.3-0.1,0.4C36.6,22.6,36.3,22.9,35.9,23.3z"/>
	<path d="M46.6,32.6c0.4-0.4,0.7-0.8,1-1.2c0.1-0.1,0.2-0.1,0.3-0.1c0.9,0,1.8,0,2.7,0c0.2,0,0.3,0,0.4-0.2
		c1.1-1.4,2.1-2.7,3.2-4.1c0.5-0.6,1.1-1.1,1.7-1.7c1.1-1.1,2.3-2.1,3.4-3.2c0.1-0.1,0.2-0.2,0.2-0.2c0.2-0.2,0.4-0.1,0.6,0
		c0.2,0.2,0.2,0.4,0,0.5c-0.2,0.2-0.5,0.5-0.7,0.7c-1.4,1.3-2.8,2.6-4.2,3.9c-0.5,0.5-0.8,1.1-1.2,1.6c-0.8,1-1.5,2-2.3,3.1
		c-0.3,0.4-0.7,0.6-1.2,0.6c-1.1,0.1-2.2,0.1-3.3,0.2C47,32.6,46.8,32.6,46.6,32.6z"/>
	<path d="M18,44.7c0.4-0.4,0.7-0.8,1.1-1.2c0.8-0.8,1.1-1.7,1.3-2.8c0.3-2.1,0.7-4.3,1.1-6.4c0-0.1,0.2-0.2,0.3-0.3
		c0,0,0.1,0,0.2,0c1.4-0.1,2.9-0.1,4.4-0.2c-0.2,0.3-0.4,0.5-0.6,0.7c-0.4,0.6-0.8,0.8-1.5,0.7c-0.4,0-0.9,0-1.3,0
		c-0.5,0-0.6,0.1-0.6,0.6c-0.4,2.3-0.8,4.5-1.2,6.8c0,0.2-0.1,0.4-0.3,0.5c-0.4,0.4-0.7,0.8-1.1,1.2c-0.2,0.1-0.4,0.3-0.6,0.3
		C18.8,44.6,18.4,44.6,18,44.7C18,44.7,18,44.7,18,44.7z"/>
	<path d="M44.7,40.9c0.1-0.4,0.1-0.7,0.2-1.1c0-0.1,0.1-0.1,0.2-0.1c1.2-0.1,2.4-0.3,3.6,0.3c1.2,0.5,2.3,1.1,3.5,1.6
		c0.1,0.1,0.3,0.2,0.4,0.3c0.9,1.1,1.8,2.2,2.6,3.2c0.2,0.3,0.2,0.6,0,0.8c-0.2,0.2-0.5,0.1-0.7-0.1c-0.9-1-1.7-2-2.6-3.1
		c-0.3-0.4-0.7-0.6-1.1-0.8c-0.8-0.3-1.7-0.7-2.5-1c-0.4-0.1-0.8-0.1-1.1-0.1C46.2,40.7,45.4,40.8,44.7,40.9z"/>
	<path d="M27.5,27c0-0.6-0.1-1.2-0.1-1.7c0-1-0.2-1.8-0.7-2.6c-0.2-0.3-0.4-0.7-0.6-1c-0.4-0.8-1.1-1.3-1.8-1.8
		c-0.9-0.5-1.8-1.1-2.7-1.7c-0.1,0-0.1-0.1-0.2-0.1c-0.2-0.2-0.3-0.4-0.1-0.6c0.1-0.2,0.4-0.3,0.6-0.1c0.4,0.2,0.7,0.4,1.1,0.7
		c0.8,0.5,1.5,0.9,2.3,1.4c0.3,0.2,0.6,0.5,0.8,0.7c0.6,1,1.3,1.9,1.9,2.9c0.4,0.7,0.6,1.4,0.7,2.2c0,0.4,0,0.9,0.1,1.3
		c0,0.1,0,0.2-0.2,0.2C28.1,26.8,27.8,26.9,27.5,27z"/>
	<path d="M40.5,19.3c0.6-0.7,1.4-0.9,2.3-0.8c0.7,0,1.3,0.2,1.9,0.5c0.1,0,0.2,0.1,0.2,0.2c0.3,0.8,0.2,1.8-0.6,2.5
		c-0.4,0.3-0.8,0.4-1.3,0.2c-1-0.4-1.9-0.9-2.8-1.6c-0.2-0.1-0.2-0.2-0.1-0.4C40.3,19.7,40.4,19.5,40.5,19.3z"/>
	<path d="M49.9,27.4C49.9,27.5,49.8,27.5,49.9,27.4c-0.6,0.6-0.6,0.6-1.2,0.1C48,26.8,47.4,26,47,25.1c-0.2-0.5-0.1-1,0.2-1.4
		c0.6-0.6,1.2-0.8,2-0.7c0.1,0,0.2,0.1,0.2,0.1c0.5,0.8,0.9,1.7,0.9,2.7C50.5,26.5,50.3,27,49.9,27.4z"/>
	<path d="M25.9,54.7c0,0.7,0,1.4-0.4,1.9c-0.5,0.6-1,1.3-1.5,2c-0.2,0.2-0.5,0.3-0.7,0.1c-0.2-0.2-0.2-0.4,0-0.6
		C24.3,57.1,25.1,56,25.9,54.7z"/>
	<path d="M17.1,47.3c-0.3,0.3-0.6,0.5-0.8,0.8c-0.7,0.7-1.4,1.5-2,2.2c-0.2,0.2-0.5,0.3-0.7,0.1c-0.2-0.2-0.2-0.5,0-0.7
		c0.7-0.7,1.3-1.3,2-2C16,47.3,16.5,47.4,17.1,47.3C17.1,47.2,17.1,47.3,17.1,47.3z"/>
	<path d="M27.7,32.2c0-1,0-1.9,0-2.9c0.4-0.1,0.7-0.2,1-0.2c0.1,0.7,0.2,1.4,0.2,2.1c0,0,0,0.1-0.1,0.1
		C28.5,31.6,28.1,31.9,27.7,32.2z"/>
	<path d="M28.4,49.4c0.1-0.8,0.3-1.6,0.4-2.4c0.1-0.7,0.3-1.4,0.4-2.1c0-0.2,0.1-0.3,0.4-0.4c1.5-0.4,3-0.9,4.5-1.4
		c1.3-0.4,2.4-1.2,3.4-2.1c0.9-0.9,1.8-1.9,2.7-2.8c0,0,0.1-0.1,0.1-0.1c0,0,0.1,0,0.1,0c-0.1,0.4-0.2,0.7-0.3,1.1
		c-0.5,1.4-1.3,2.6-2.1,3.7c-2.4,3.2-5.6,5.1-9.3,6.5C28.5,49.4,28.5,49.4,28.4,49.4z"/>
	<path d="M27.9,54c0.1-0.5,0.1-1,0.2-1.5c0-0.1,0.1-0.1,0.1-0.2c0.4-0.5,0.8-1,1.2-1.5c0.1-0.1,0.2-0.2,0.3-0.2
		c2.2-0.7,4.4-1.4,6.5-2.2c0.5-0.2,0.6-0.2,0.5-0.8c-0.1-0.6-0.1-1.3-0.2-1.9c0-0.2,0-0.3,0.1-0.4c0.3-0.4,0.7-0.7,1-1.2
		c0,0.1,0,0.2,0,0.2c0.1,1.3,0.2,2.7,0.3,4c0,0.4-0.1,0.6-0.5,0.7c-2.4,0.8-4.8,1.5-7.3,2.3c-0.2,0.1-0.3,0.2-0.4,0.3
		c-0.6,0.7-1.3,1.4-1.9,2.1C28,53.9,28,53.9,27.9,54z"/>
	<path d="M31.7,34.6c-0.1,0.7-0.2,1.3-0.3,1.9c0,0,0,0,0,0c-0.2,1.6,0.9,2.3,2.2,2.4c0.6,0.1,1.1-0.1,1.7-0.3
		c0.4-0.1,0.8-0.3,1.3-0.4c0,0,0,0,0,0.1c-0.5,0.4-1,0.8-1.5,1.2c-0.9,0.9-2.1,1.3-3.3,1.6c-0.6,0.2-1.2,0.3-1.9,0.5
		C30.2,39.2,30.5,36.8,31.7,34.6z"/>
	<path d="M39.4,42.1c0.3-0.5,0.6-1,0.8-1.4c0,0,0.1-0.1,0.2-0.1c0.7-0.2,1.4-0.4,2.1-0.6c-0.1,0.4-0.2,0.8-0.3,1.1
		c0,0-0.1,0.1-0.1,0.1C41.3,41.4,40.4,41.7,39.4,42.1z"/>
</g>
</svg>
