<svg version="1.1" xmlns="http://www.w3.org/2000/svg" viewBox="0 0 200 200" >
<g>
	<path d="M80.2,99.1c0.3-1.8-0.1-3.2-1.4-4.6c-5.9-6.1-9.2-13.7-10.6-22c-4.7-20.7,5.8-45.1,28.7-47c31.8-3.4,44.9,35.7,29.6,61.9
		c-1.7,4.2-7.5,6.9-6.7,11.7c11.6,1.6,25,0.7,35.3,7c7.7,8.7,12.7,18.8,15.2,30.2c2.9,13.4,5.7,26.9,8.5,40.3
		c0.6,2.7-1.2,5.4-3.7,5.9c-3,0.5-5.4-1.2-6-4.2c-4.1-17.4-5.6-35.5-12.4-52.1c-2.6-4.6-4.8-10.4-9.2-13.2
		c-5.2-1-10.5-2.2-15.8-2.9c-5.6-0.7-11.4-1-17-1.4c-2.6-0.2-4.6-2.1-4.7-4.7c0.5-4.5-1.7-10.5,1.9-14c6.8-6.1,10-13.9,10.8-22.8
		c2.4-14.9-5.5-32.5-22.4-32.2c-16.7-0.9-25.8,17.5-22.5,33.7c0.8,6.5,2.9,12.5,7.1,17.6c1.9,2.6,5.6,4.4,5.4,8.1
		c-0.5,4.9,2.3,13.9-5.2,14.2c-9.1,1.2-29.2,0.3-35.3,6.8c-13.2,18.1-13.3,41.6-18.7,62.5c-1,6.9-11.3,5.2-9.7-1.8
		c6.7-24.2,5.5-55,26.3-72.1C58.1,100.8,69.2,100.3,80.2,99.1z"/>
	<path d="M90.5,138.7c1.6,0,3,0,4.6,0c0-16.3,0-32.6,0-48.9c0-3.1,1.5-5,4.1-5.5c3.5-0.7,6.2,2.6,5.7,6c0,16.1,0,32.1,0,48.2
		c1.6,0,3,0,4.6,0c-1.1-10.6,4.2-22.1,15.9-22.7c12.7-0.5,21.5,12.9,24.2,23.9c1.1,14.1,5.8,46.7-17.1,42.5
		c-21.8-8-22.1-10-22.5-32.4c0-1-0.2-1.5-1.4-1.5c-6.2,0.2-12.4,0.2-18.6,0.4c-1.2,9.6,1.9,23-9.3,27.6
		c-28.2,16.6-32.9-2.6-31.2-27.7c-0.7-11.7,5.2-22.7,14.4-29.8C78.4,109.1,92.5,122.8,90.5,138.7z M59.3,152.7
		c-0.3,6.5,0.1,11.7,1.6,17.8c0.8,3.8,5.4,1.9,7.8,0.9c3.7-2.6,10.4-3.2,10.9-8.5c0.8-8.6,0.7-17.3,1.1-25.9
		c0.6-6.5-2.6-13.8-10.2-10.7C61.6,132.1,58.6,142.9,59.3,152.7z M140.7,153.3c0.5-10.4-1.9-20.7-11-26.9c-2.6-2-8.2-0.4-9.1,2.5
		c-0.6,2-1.2,4.1-1.2,6.2c0.1,8.5,0.6,16.9,0.7,25.4c-0.5,7.6,7.6,8.4,12.9,11.5C142.6,176.7,140.5,158.6,140.7,153.3z"/>
</g>
</svg>
