<svg version="1.1" xmlns="http://www.w3.org/2000/svg" viewBox="0 0 200 200">
<path d="M165.2,115.5h-28l-18.9-31.3h5.2c3.8,0,6.8-3.1,6.8-6.8V32.2c0-3.8-3.1-6.8-6.8-6.8H79.3c-3.8,0-6.8,3.1-6.8,6.8v45.4
	c0,3.8,3.1,6.8,6.8,6.8h6l-18.9,31.3H34.7c-3.8,0-6.8,3.1-6.8,6.8v45.4c0,3.8,3.1,6.8,6.8,6.8h44.2c3.8,0,6.8-3.1,6.8-6.8v-45.5
	c0-3.8-3.1-6.8-6.8-6.8h-1.4l18.9-31.3h10.8l18.9,31.3h-5.1c-3.8,0-6.8,3.1-6.8,6.8v45.4c0,3.8,3.1,6.8,6.8,6.8h44.2
	c3.8,0,6.8-3.1,6.8-6.8v-45.4C172.1,118.6,169,115.5,165.2,115.5z"/>
</svg>
