<svg version="1.1" xmlns="http://www.w3.org/2000/svg" viewBox="0 0 200 200">
<g>
	<path d="M100,190.2c-19.1,0-38.3,0-57.4,0c-3.6,0-6.9-1-9.9-2.9c-5.5-3.3-7.7-8.5-6.7-15c0.9-5.7,3.1-10.9,6.2-15.6
		c14.1-21.4,28.3-42.6,42.4-63.9c2.2-3.3,3.4-7.1,4.3-11c1-4.3,1.4-8.7,1-13.1C80,68.1,80,67.5,80,66.9c0-11.7,0-23.4,0-35.1
		c0-0.9-0.2-1.5-0.9-2.1c-1.9-1.5-2.9-3.5-2.6-6c0.3-2.3,1.7-3.9,3.5-5.2c2.6-1.9,5.6-2.9,8.6-3.5c9.1-1.9,18.1-1.8,27,1.2
		c2.1,0.7,4.1,1.8,5.8,3.3c3.1,3,3.2,7-0.1,9.9c-1,0.9-1.3,1.7-1.3,2.9c0,10.9,0,21.9,0,32.8c0,2.9-0.2,5.9-0.1,8.8
		c0.2,6.3,1.7,12.3,4.8,17.7c1.8,3.2,4,6.2,6,9.3c12.4,18.6,24.8,37.2,37.1,55.9c3.3,5,5.6,10.4,6.2,16.4c0.7,6.9-2.3,12-8.6,15
		c-2.6,1.2-5.2,1.8-8.1,1.8C138.2,190.2,119.1,190.2,100,190.2z M85.7,33.1c0,0.5,0,0.8,0,1.1c0,10.9,0,21.9,0,32.8
		c0,0.4,0,0.8,0,1.2c0.3,4.4,0,8.8-0.8,13.1c-1,5.4-2.8,10.6-5.9,15.2C67,114.8,55,132.9,43,151c-2.5,3.8-5.1,7.6-7.4,11.6
		c-2,3.4-3.4,7.1-3.9,11c-0.3,2.3-0.2,4.6,1.4,6.5c2.2,2.7,5.2,4.3,8.7,4.3c38.5,0.1,77,0,115.4,0.1c2.1,0,4-0.5,5.9-1.3
		c4.1-1.9,5.8-4.9,5.2-9.4c-0.7-5.2-2.8-9.8-5.6-14.1c-9.8-15-19.8-29.9-29.8-44.9c-4.2-6.3-8.5-12.6-12.5-18.9
		c-3.8-5.9-5.5-12.5-6.1-19.4c-0.3-3-0.1-6.1-0.1-9.1c0-11.1,0-22.1,0-33.2c0-0.3,0-0.6,0-1c-4.7,1.5-9.5,2-14.3,2
		C95.2,35.1,90.5,34.6,85.7,33.1z M117.6,24.4c-1.3-1.2-2.8-1.9-4.3-2.5c-4.1-1.5-8.4-1.9-12.7-1.9c-4.6,0-9.2,0.4-13.6,1.9
		c-1.6,0.6-3.1,1.2-4.4,2.5c0.5,0.3,0.8,0.7,1.3,0.9c1.7,0.7,3.3,1.6,5,2.1c4.9,1.4,9.9,1.5,15,1.2c3.6-0.2,7.1-0.8,10.4-2.2
		C115.4,26.1,116.6,25.5,117.6,24.4z"/>
	<path d="M100,181.6c-19.4,0-38.7,0-58.1,0c-2.5,0-4.6-1.2-6.3-2.9c-1-1.1-1.1-2.5-1-3.9c0.3-3.3,1.6-6.3,2.9-9.3
		c1.5-3.2,3.5-6.1,5.5-9c6.7-10.1,13.4-20.1,20-30.2c0.5-0.8,1.1-1,1.9-1c8.7,0.1,17.1,2,25.1,5.3c6,2.5,12.2,3.6,18.6,3.6
		c7.5,0,14.8-1.5,21.8-4c2.3-0.8,4.5-1.7,6.7-2.6c0.5-0.2,0.7-0.1,1,0.3c7.5,11.3,15,22.5,22.4,33.9c2.3,3.5,4,7.4,4.8,11.7
		c0.1,0.8,0.2,1.5,0.2,2.3c0,1.8-0.8,3.2-2.4,4.2c-1.8,1.1-3.6,1.8-5.8,1.8C138.3,181.6,119.2,181.6,100,181.6z M126.4,156.8
		c-1.8,0-3.2,1.5-3.2,3.3c0,1.8,1.5,3.2,3.3,3.2c1.8,0,3.2-1.5,3.2-3.3C129.6,158.2,128.2,156.8,126.4,156.8z M141.2,168.6
		c1.8,0,3.3-1.4,3.3-3.2c0-1.8-1.4-3.3-3.1-3.3c-1.9,0-3.4,1.3-3.4,3.2C137.9,167.1,139.4,168.6,141.2,168.6z M110.7,176.4
		c1.8,0,3.3-1.4,3.3-3.2c0-1.8-1.5-3.3-3.3-3.3c-1.8,0-3.3,1.5-3.3,3.3C107.4,175,108.9,176.4,110.7,176.4z M133.2,159.4
		c1.8,0,3.3-1.4,3.3-3.2c0-1.8-1.4-3.3-3.2-3.3c-1.8,0-3.3,1.4-3.3,3.2C130,157.9,131.4,159.4,133.2,159.4z M127.1,171
		c1.8,0,3.3-1.4,3.3-3.2c0-1.8-1.4-3.3-3.2-3.3c-1.8,0-3.3,1.4-3.3,3.2C123.9,169.5,125.3,171,127.1,171z M69.6,171.1
		c0-1.7-1.4-3-3.1-3c-1.7,0-3,1.4-3,3c0,1.7,1.4,3.1,3.1,3.1C68.2,174.2,69.6,172.8,69.6,171.1z M67.7,148.2c1.7,0,3.1-1.3,3.1-3
		c0-1.7-1.3-3-3-3.1c-1.7,0-3.1,1.3-3.1,3C64.6,146.8,66,148.2,67.7,148.2z M84,165.6c0,1.7,1.4,3.1,3.1,3c1.7,0,3-1.3,3-3
		c0-1.7-1.3-3.1-3-3.1C85.4,162.5,84,163.9,84,165.6z M71.5,163.9c0-1.7-1.4-3.1-3.1-3.1c-1.7,0-3.1,1.4-3,3.1c0,1.7,1.4,3,3,3
		C70.2,167,71.5,165.7,71.5,163.9z M80.3,170.1c-1.7,0-3.1,1.3-3.1,3c0,1.7,1.4,3.1,3.1,3.1c1.6,0,3-1.3,3.1-3
		C83.4,171.5,82,170.1,80.3,170.1z M91.3,152.6c1.7,0,3.1-1.4,3.1-3.1c0-1.7-1.4-3.1-3.1-3.1c-1.6,0-3,1.4-3,3
		C88.2,151.1,89.6,152.5,91.3,152.6z M81.6,142.3c0-1.7-1.3-3.1-3-3.1c-1.6,0-3.1,1.4-3.1,3.1c0,1.6,1.4,3,3,3
		C80.2,145.3,81.6,144,81.6,142.3z M126.7,144.2c0-1.2-1-2.3-2.2-2.3c-1.2,0-2.2,1-2.2,2.3c0,1.2,1,2.2,2.3,2.2
		C125.7,146.4,126.7,145.4,126.7,144.2z M98.3,158.8c0-1.2-1-2.3-2.2-2.3c-1.2,0-2.2,1-2.2,2.2c0,1.2,0.9,2.3,2.2,2.3
		C97.2,161,98.2,160,98.3,158.8z M70.3,152.2c0,1.3,1,2.2,2.3,2.2c1.2,0,2.2-1,2.2-2.2c0-1.2-1-2.3-2.2-2.3
		C71.3,150,70.3,151,70.3,152.2z M114,161.5c-1.3,0-2.2,1-2.2,2.2c0,1.2,1,2.2,2.2,2.2c1.2,0,2.3-1,2.3-2.2
		C116.2,162.4,115.2,161.5,114,161.5z M120.7,152c-1.3,0-2.2,0.9-2.3,2.2c0,1.2,1,2.3,2.2,2.3c1.2,0,2.2-1,2.2-2.2
		C122.9,153,122,152,120.7,152z M65,158c0.9,0,1.5-0.7,1.5-1.5c0-0.9-0.7-1.6-1.6-1.6c-0.8,0-1.5,0.8-1.5,1.6
		C63.5,157.4,64.2,158,65,158z M90,158c0-0.8-0.7-1.5-1.5-1.5c-0.9,0-1.6,0.7-1.6,1.6c0,0.8,0.7,1.5,1.6,1.5
		C89.4,159.6,90,158.9,90,158z M112.5,149.8c0-0.9-0.7-1.5-1.5-1.5c-0.8,0-1.5,0.7-1.5,1.5c0,0.8,0.8,1.6,1.6,1.6
		C111.9,151.3,112.5,150.6,112.5,149.8z M82.5,156.7c0.9,0,1.5-0.6,1.6-1.5c0-0.8-0.6-1.5-1.5-1.6c-0.8,0-1.6,0.7-1.6,1.5
		C81,156,81.7,156.7,82.5,156.7z M107.5,158.1c0-0.8-0.6-1.5-1.5-1.6c-0.8,0-1.5,0.6-1.6,1.5c0,0.9,0.6,1.6,1.5,1.6
		C106.8,159.6,107.5,158.9,107.5,158.1z M79.4,161.7c0-0.9-0.7-1.5-1.6-1.5c-0.8,0-1.5,0.7-1.5,1.6c0,0.8,0.7,1.5,1.6,1.5
		C78.7,163.2,79.4,162.5,79.4,161.7z M58,167.5c0.9,0,1.5-0.6,1.5-1.5c0-0.8-0.7-1.5-1.5-1.5c-0.8,0-1.5,0.7-1.5,1.5
		C56.5,166.8,57.2,167.5,58,167.5z M100.8,142.8c-0.9,0-1.5,0.7-1.5,1.5c0,0.8,0.7,1.5,1.5,1.5c0.8,0,1.5-0.7,1.5-1.5
		C102.3,143.5,101.6,142.8,100.8,142.8z M120.8,160.7c-0.9,0-1.5,0.6-1.5,1.5c0,0.9,0.6,1.5,1.5,1.6c0.8,0,1.5-0.7,1.5-1.5
		C122.3,161.3,121.6,160.7,120.8,160.7z M101.7,167.5c0.9,0,1.5-0.6,1.6-1.5c0-0.8-0.7-1.5-1.5-1.6c-0.8,0-1.5,0.7-1.6,1.5
		C100.2,166.8,100.8,167.4,101.7,167.5z"/>
</g>
</svg>
