<svg version="1.1" xmlns="http://www.w3.org/2000/svg" viewBox="0 0 200 200">
<g>
	<path d="M130.5,108.5c3.8-2,7.4-4,11.2-6c-0.4-0.7-0.7-1.2-1.1-1.8c-5.9-9.4-14.4-15.2-25.2-17.6C96,78.9,76,90.3,69.8,109.3
		c-1.5,4.6-2.4,9.2-2.2,14c0.3,9.2,3.6,17.3,9.5,24.4c7.2,8.6,16.4,14.2,27.1,17.3c10,2.9,20.2,3.9,30.6,3.3
		c4.2-0.2,8.4-0.5,12.6-0.8c0.3,0,0.5,0,0.8,0.3c-0.2,0.1-0.4,0.2-0.7,0.2c-4.1,0.5-8.3,1.2-12.4,1.5c-6.9,0.6-13.9,0.4-20.8-0.5
		c-14.3-2-27.2-7.2-37.7-17.3C70.7,146,67,139,65,131.1c-2.2-9.1-1.9-18.1,2-26.6c5.2-11.3,13.3-19.8,25.2-24.1
		c7.6-2.7,15.4-3.2,23.3-1.5c2.2,0.5,4.4,1.2,6.6,1.9c0.5,0.2,0.8,0.2,1-0.4c1.6-3.6,3.2-7.1,4.8-10.7c0-0.1,0-0.2,0.1-0.5
		c-2-0.7-4-1.4-6-2C99.3,61,76,69,61.4,87.8c-4.8,6.2-8.4,12.9-10.1,20.6c-2.6,12.2-1,24,4.2,35.3c5.1,11,12.8,19.8,23.2,25.9
		c6.4,3.8,13.4,6,20.7,7.6c7.5,1.6,15.2,2.4,22.9,2.4c0.6,0,1.1,0,1.7,0c0,0.1,0,0.2,0,0.3c-0.3,0.1-0.6,0.2-1,0.2
		c-7.6,0.6-15.1,0.1-22.6-1.2c-9.1-1.6-17.8-4.3-25.7-9.3c-13.5-8.6-23.1-20.4-27.1-36.1c-5.1-20.2-0.3-37.9,13.9-53.1
		c9.3-9.9,20.7-15.9,34-18.1c3-0.5,6.1-0.6,9.2-0.9c0.3,0,0.6,0,1-0.1c0-0.4,0.1-0.7,0.1-1c0-3.5,0-7,0-10.5c0-1.1-0.4-1.3-1.4-1.3
		c-9,0.2-17.8,1.7-26.2,5.3C54.9,64,40,81.7,33.6,106.6c-1.6,6.2-2.1,12.5-1.5,18.9c1.2,13.5,6.4,25.3,15.3,35.5
		c4.9,5.5,10.6,10,17.1,13.6c0.3,0.1,0.5,0.3,0.8,0.5c0,0,0,0.1,0.1,0.4c-0.7-0.2-1.2-0.4-1.8-0.7c-6.2-3-11.8-6.9-17-11.4
		c-13.6-11.7-22.3-26.3-26.5-43.7c-1.8-7.7-2.3-15.5-1.8-23.4c1-15.4,5.9-29.5,14.8-42.1c10-14,23.1-24,39.3-29.9
		c10.9-3.9,22.1-5.4,33.6-4.5c32.4,2.3,60.5,23.7,71.2,54.3c3.7,10.6,5.2,21.5,4.5,32.7c-1.2,17.4-7.4,32.8-18.3,46.3
		c-0.6,0.7-1.3,1.1-2.1,1.2c-8.8,1-17.7,1.9-26.6,1.8c-8.4,0-16.8-0.8-25-3c-10.2-2.7-18.4-8.3-24.7-16.8c-2.4-3.2-3.6-6.9-4-10.8
		c-0.9-7.5,0.6-14.4,5.3-20.4c10.7-13.7,32-13.4,42.3,0.7C129.2,106.7,129.8,107.6,130.5,108.5z"/>
</g>
</svg>
