<?xml version="1.0" encoding="utf-8"?>
<!-- Generator: Adobe Illustrator 25.2.3, SVG Export Plug-In . SVG Version: 6.00 Build 0)  -->
<svg version="1.1" id="Layer_1" xmlns="http://www.w3.org/2000/svg" xmlns:xlink="http://www.w3.org/1999/xlink" x="0px" y="0px"
	 width="200px" height="200px" viewBox="0 0 200 200" style="enable-background:new 0 0 200 200;" xml:space="preserve">
<path d="M180.5,88.1c0-2-1-3.4-2.8-4.3c-3.5-1.6-7.1,0.6-7.2,4.5c0,1.6,0,3.3,0,4.9c-4.7,0-9.2,0-13.9,0c-0.8-5.2-2-10.2-4-15
	c-2-4.8-4.7-9.2-7.9-13.5c3-2.9,5.9-5.8,8.8-8.7c0.3-0.3,0.6-0.6,1-1c1.4,1.2,2.7,2.3,4.1,3.4c2.4,1.9,5.2,1.8,7.1-0.2
	c1.9-2.1,1.8-5-0.3-7.2C160,45.5,154.5,40,149,34.6c-0.7-0.7-1.8-1.3-2.8-1.5c-2.2-0.5-4.2,0.5-5.3,2.4c-1,1.8-0.9,4,0.5,5.7
	c1.1,1.4,2.4,2.8,3.4,4.1c-3.3,3.3-6.5,6.6-9.8,9.8c0,0-0.1,0-0.2-0.1c-8.1-6.2-17.1-10.1-27.2-11.4c-0.9-0.1-1-0.5-1-1.3
	c0-3.9,0-7.8,0-11.7c0-0.3,0.1-0.7,0.1-1.1c1.6,0,3.2,0,4.7,0c3-0.1,5.2-2.2,5.2-5c0-2.8-2.2-5.1-5.2-5.1c-7.7,0-15.4-0.1-23,0
	c-1.1,0-2.2,0.4-3.2,1c-1.8,1.2-2.5,3.3-1.9,5.3c0.6,2.1,2.3,3.5,4.5,3.6c1.7,0.1,3.4,0,5.2,0c0,4.8,0,9.3,0,13.9
	c-10.6,1.4-20.1,5.2-28.5,11.8c-1.7-1.7-3.3-3.3-4.9-4.9c-1.6-1.6-3.3-3.2-4.9-4.8c1.3-1.5,2.4-2.8,3.5-4.2c2-2.4,1.8-5.3-0.4-7.3
	c-2-1.8-4.9-1.6-7,0.5C45.6,40.1,40.3,45.5,35,50.9c-2.2,2.3-2.3,5.2-0.3,7.3c2,2,4.9,2,7.3-0.1c1.1-1,2.2-2.1,3.1-2.8
	c3.3,3.3,6.6,6.5,9.9,9.7c-6.4,8.3-10.3,17.7-11.7,28.2c-4.6,0-9.2,0-13.9,0c0-1.8,0.1-3.5,0-5.2c-0.1-2.6-2.5-4.7-5-4.7
	c-2.6,0.1-4.9,2.2-4.9,4.8c-0.1,7.9,0,15.9,0,23.8c0,1.8,0.9,3.3,2.6,4.2c3.5,1.8,7.3-0.4,7.5-4.3c0.1-1.7,0-3.3,0-5
	c4.7,0,9.2,0,13.8,0c1.4,10.5,5.2,20,11.7,28.3c-3.3,3.3-6.5,6.6-9.8,9.8c-1.3-1.1-2.6-2.3-4-3.3c-0.7-0.5-1.5-1-2.4-1.2
	c-2.3-0.5-4.3,0.6-5.4,2.7c-1,2-0.6,4.2,1.2,6.1c5.4,5.4,10.8,10.8,16.2,16.2c2.2,2.2,5.2,2.3,7.3,0.4c2.1-2,2.1-4.9,0.1-7.3
	c-1.1-1.3-2.1-2.5-3.1-3.7c3.3-3.3,6.6-6.5,9.8-9.8c0,0,0.1,0.1,0.2,0.1c8,6.1,17,10,27,11.3c0.9,0.1,1.1,0.5,1.1,1.3
	c0,3.1,0,6.2,0,9.3c0,1.1,0,2.2,0,3.4c-1.8,0-3.4-0.1-5,0c-2.9,0.1-5,2.4-5,5c0,2.8,2.2,5,5.2,5c7.8,0,15.5,0,23.3,0
	c2.3,0,4.2-1.4,4.8-3.5c1-3.2-1.3-6.4-4.8-6.5c-1.6-0.1-3.2,0-4.9,0c0-4.7,0-9.3,0-13.9c10.6-1.3,20-5.3,28.1-11.6
	c3.4,3.3,6.6,6.5,9.9,9.8c-1,1.2-2.1,2.5-3.2,3.7c-2,2.4-1.9,5.3,0.2,7.3c2,1.8,5,1.7,7.2-0.5c1.9-1.8,3.7-3.7,5.6-5.5
	c3.6-3.6,7.2-7.1,10.7-10.7c2.2-2.2,2.2-5.2,0.2-7.3c-1.9-2-4.8-2-7.1-0.1c-1.3,1.1-2.6,2.2-3.7,3.1c-3.3-3.3-6.6-6.5-9.9-9.8
	c6.4-8.3,10.3-17.7,11.7-28.2c4.6,0,9.2,0,13.9,0c0,1.7,0,3.3,0,4.9c0.1,2.9,2.2,5,5,5.1c2.6,0,5-2.1,5-4.9
	C180.5,104,180.5,96,180.5,88.1z"/>
</svg>
