<svg width="1088" height="748" viewBox="0 0 1088 748" fill="none" xmlns="http://www.w3.org/2000/svg">
<path fill-rule="evenodd" clip-rule="evenodd" d="M25.4247 11.1393C25.4247 4.98726 30.4119 0 36.564 0L1051.94 0C1058.09 0 1063.08 4.98725 1063.08 11.1393V12.8693C1063.08 17.8744 1067.14 21.9318 1072.14 21.9318L1076.86 21.9318C1083.01 21.9318 1088 26.919 1088 33.0711V708.517C1088 714.669 1083.01 719.656 1076.86 719.656H1072.14C1067.14 719.656 1063.08 723.714 1063.08 728.719V736.431C1063.08 742.584 1058.09 747.571 1051.94 747.571L36.564 747.571C30.4119 747.571 25.4247 742.584 25.4247 736.431L25.4247 728.719C25.4247 723.714 21.3673 719.656 16.3623 719.656H11.6393C5.48725 719.656 0.5 714.669 0.5 708.517L0.500002 33.0711C0.500003 26.919 5.48726 21.9318 11.6393 21.9318L16.3623 21.9318C21.3673 21.9318 25.4247 17.8744 25.4247 12.8693V11.1393ZM36.564 2.07692C31.559 2.07692 27.5016 6.13431 27.5016 11.1393V12.8693C27.5016 19.0214 22.5144 24.0087 16.3623 24.0087H11.6393C6.63431 24.0087 2.57693 28.0661 2.57693 33.0711L2.57692 708.517C2.57692 713.522 6.63431 717.579 11.6393 717.579H16.3623C22.5143 717.579 27.5016 722.567 27.5016 728.719L27.5016 736.431C27.5016 741.436 31.559 745.494 36.564 745.494L1051.94 745.494C1056.94 745.494 1061 741.437 1061 736.431V728.719C1061 722.567 1065.99 717.58 1072.14 717.58H1076.86C1081.86 717.58 1085.92 713.522 1085.92 708.517V33.0711C1085.92 28.0661 1081.86 24.0087 1076.86 24.0087H1072.14C1065.99 24.0087 1061 19.0214 1061 12.8693V11.1393C1061 6.13431 1056.94 2.07692 1051.94 2.07692L36.564 2.07692Z" fill="#4D655F"/>
</svg>
